<svg width="55" height="55" viewBox="0 0 55 55" fill="none" xmlns="http://www.w3.org/2000/svg">
<g clip-path="url(#clip0_7_237)">
<path d="M47.9834 44.8319C49.1851 44.3011 49.7214 42.9179 49.1796 41.7409L32.6741 5.88362C32.1324 4.70662 30.7189 4.18274 29.5171 4.71349C28.3154 5.24424 27.7791 6.62749 28.3209 7.80449L44.8264 43.6617C45.3681 44.8387 46.7816 45.3626 47.9834 44.8319Z" fill="#5A81FF"/>
<path d="M46.959 45.133C48.25 45.133 49.2965 44.0868 49.2965 42.7962C49.2965 41.5056 48.25 40.4594 46.959 40.4594H6.68113C5.39017 40.4594 4.34363 41.5056 4.34363 42.7962C4.34363 44.0868 5.39017 45.133 6.68113 45.133H46.959Z" fill="#5A81FF"/>
<path d="M44.473 33.4331C43.3318 32.7882 41.8715 33.1705 41.2115 34.2884L37.4028 40.7467C36.7441 41.8646 37.1346 43.2932 38.2773 43.9395C39.4185 44.5844 40.8788 44.2021 41.5388 43.0842L45.3475 36.6259C46.0061 35.508 45.6156 34.0794 44.473 33.4331Z" fill="#5A81FF"/>
<path d="M9.55487 50.5601C12.9045 50.5601 15.62 47.9019 15.62 44.6229C15.62 41.3438 12.9045 38.6856 9.55487 38.6856C6.20519 38.6856 3.48975 41.3438 3.48975 44.6229C3.48975 47.9019 6.20519 50.5601 9.55487 50.5601Z" fill="#333D4B"/>
<path d="M17.2054 45.133C17.2054 40.997 13.7802 37.6448 9.55625 37.6448C5.9235 37.6448 2.88337 40.1225 2.101 43.4459C1.89887 44.3025 2.52587 45.133 3.40587 45.133H17.2054Z" fill="#5A81FF"/>
<path d="M46.8724 50.5601C50.2221 50.5601 52.9375 47.9019 52.9375 44.6229C52.9375 41.3438 50.2221 38.6856 46.8724 38.6856C43.5227 38.6856 40.8073 41.3438 40.8073 44.6229C40.8073 47.9019 43.5227 50.5601 46.8724 50.5601Z" fill="#333D4B"/>
<path d="M46.8724 47.1845C48.3175 47.1845 49.489 46.0376 49.489 44.6229C49.489 43.2081 48.3175 42.0612 46.8724 42.0612C45.4272 42.0612 44.2557 43.2081 44.2557 44.6229C44.2557 46.0376 45.4272 47.1845 46.8724 47.1845Z" fill="#6B7683"/>
<path d="M24.1464 4.43988H30.3999C31.8244 4.43988 32.978 5.57013 32.978 6.96301C32.978 8.35726 31.8244 9.48613 30.3999 9.48613H24.1464C22.7219 9.48613 21.5682 8.35588 21.5682 6.96301C21.5682 5.56876 22.7219 4.43988 24.1464 4.43988Z" fill="#333D4B"/>
</g>
<defs>
<clipPath id="clip0_7_237">
<rect width="55" height="55" fill="white"/>
</clipPath>
</defs>
</svg>
