<svg width="64" height="64" viewBox="0 0 64 64" fill="none" xmlns="http://www.w3.org/2000/svg">
<circle cx="32" cy="32" r="32" fill="#DEE0FF"/>
<g filter="url(#filter0_d_186_5677)">
<path d="M35.5695 12.034C35.5695 12.0237 35.5593 12.0237 35.549 12.0135L32.8533 14.3505C32.433 13.6637 31.6233 13.428 30.9673 13.8482C30.2703 14.2992 30.0243 15.314 30.4138 16.1135C30.5778 16.4517 30.8238 16.6977 31.121 16.831L30.0448 18.7272L30.0345 18.7477L30.0038 18.717L29.6655 19.3217C30.0858 19.2192 30.506 19.209 30.9058 19.3422C31.4388 19.537 31.8795 19.7932 32.2383 20.0905L32.6893 19.291C33.54 19.1987 34.3805 18.8605 35.0775 18.266C36.9328 16.6772 37.1583 13.8892 35.5695 12.034ZM35.3953 15.5907C35.18 15.5907 35.0058 15.2832 35.0058 14.904C35.0058 14.5247 35.18 14.207 35.3953 14.207C35.6105 14.207 35.795 14.5247 35.795 14.904C35.795 15.2832 35.6208 15.5907 35.3953 15.5907Z" fill="#FFCCA8"/>
<path d="M24.7351 30.7095C24.8376 31.0682 24.8683 31.4475 24.8068 31.8472C24.5711 33.2925 23.2078 34.2765 21.7626 34.0407C20.3173 33.805 19.3333 32.4417 19.5691 30.9965C19.6511 30.4942 19.8766 30.0535 20.1841 29.6947L20.1738 29.6845L24.1406 24.4775L27.1643 27.5217L24.7351 30.7095Z" fill="#FFCCA8"/>
<path d="M42.7852 26.794C42.6519 27.6345 42.0779 28.3007 41.3399 28.6082L38.8594 30.3507C37.4552 31.345 35.5282 31.1195 34.3904 29.828L33.8062 29.1925V23.5242L36.4917 26.4455C36.7684 26.7632 37.2502 26.8247 37.5987 26.5787L38.0702 26.2405C38.0702 26.179 38.0702 26.1072 38.0804 26.0355C38.2854 24.7337 39.5154 23.8522 40.8069 24.0572C42.1087 24.2725 42.9902 25.4922 42.7852 26.794Z" fill="#FFCCA8"/>
<path d="M40.4901 42.0296L33.7927 31.4219H27.1066V31.3757L21.2026 40.7668L25.6101 43.726V43.729L29.9069 36.8964C30.1529 36.5048 30.7228 36.5048 30.9688 36.8964L36.0785 44.9898L35.8837 44.672L40.489 42.0306L40.4901 42.0296Z" fill="#3E5AF4"/>
<path d="M33.7929 31.4219H33.8083V23.3541C33.8083 23.3541 33.7888 21.3676 32.239 20.0874C31.8813 19.7922 31.4426 19.5339 30.9024 19.3474C30.5037 19.209 30.0855 19.2182 29.6612 19.3176C27.0218 19.9378 24.1323 24.4621 24.1323 24.4621L24.1436 24.4734L27.1643 27.5176L27.1079 31.3757V31.4219H33.7929Z" fill="#8595AA"/>
<path d="M45.2594 43.7957L44.9724 43.3273C44.546 42.6313 43.7947 42.2018 42.9788 42.1875L40.4901 42.0306L35.8848 44.6721L36.0795 44.9898L38.0567 48.2145C38.1828 48.4195 38.4503 48.484 38.6564 48.358L45.1169 44.3963C45.3219 44.2703 45.3865 44.0017 45.2604 43.7967L45.2594 43.7957Z" fill="#4E5968"/>
<path d="M21.2028 40.7668L18.9888 44.2826C18.8607 44.4866 18.9222 44.7551 19.1251 44.8832L25.5385 48.9207C25.7425 49.0488 26.0111 48.9873 26.1392 48.7844L26.4323 48.319C26.8669 47.6282 26.9192 46.7641 26.5717 46.0261L25.6123 43.7291V43.726L21.2028 40.7668Z" fill="#4E5968"/>
<path d="M30.0395 18.7293L31.1168 16.8341C30.8277 16.6947 30.5735 16.4549 30.4095 16.1156C30.02 15.312 30.2701 14.2972 30.9692 13.8493C31.6221 13.4301 32.4308 13.6617 32.8521 14.3495L35.5458 12.0084L35.5489 12.0064C35.4976 11.9469 35.432 11.9039 35.3777 11.8485C35.2198 11.6855 35.061 11.5246 34.8816 11.3883C34.8057 11.3309 34.7217 11.2899 34.6438 11.2376C34.4695 11.1218 34.2943 11.009 34.1057 10.9199C34.0083 10.8737 33.9058 10.844 33.8064 10.8051C33.628 10.7354 33.4486 10.6698 33.2631 10.6247C33.1473 10.596 33.0304 10.5816 32.9126 10.5632C32.7332 10.5345 32.5538 10.5119 32.3703 10.5047C32.317 10.5027 32.2658 10.4873 32.2125 10.4873C32.1346 10.4873 32.0618 10.5068 31.9849 10.5109C31.823 10.5191 31.6621 10.5345 31.5042 10.5601C31.3792 10.5806 31.2572 10.6072 31.1352 10.638C30.9722 10.68 30.8123 10.7282 30.6565 10.7887C30.5499 10.8297 30.4474 10.8737 30.346 10.9219C30.183 10.9988 30.0251 11.0839 29.8734 11.1802C29.7853 11.2366 29.7012 11.296 29.6172 11.3575C29.4655 11.4693 29.3179 11.5882 29.1816 11.7183C29.1139 11.7829 29.0514 11.8516 28.9868 11.9213C28.8536 12.0648 28.7265 12.2134 28.6137 12.3733C28.5625 12.4461 28.5184 12.523 28.4702 12.5998C28.3708 12.7608 28.2765 12.9258 28.1986 13.099C28.1535 13.1984 28.1186 13.302 28.0807 13.4045C28.0223 13.5623 27.969 13.7222 27.93 13.8872C27.9003 14.0102 27.8829 14.1353 27.8634 14.2624C27.8398 14.4192 27.8214 14.5781 27.8152 14.74C27.8132 14.7964 27.7988 14.8487 27.7988 14.9061C27.7988 15.0352 27.8132 15.1623 27.8245 15.2894C27.8286 15.3397 27.8286 15.3919 27.8347 15.4422C27.8644 15.6871 27.9177 15.927 27.9874 16.1607C28.0069 16.2273 28.0325 16.2929 28.0561 16.3585C28.1238 16.5512 28.2037 16.7378 28.296 16.9182C28.3226 16.9704 28.3462 17.0248 28.3749 17.076C28.4999 17.2974 28.6475 17.5065 28.8095 17.7033C28.8495 17.7525 28.8935 17.7997 28.9356 17.8468C29.0903 18.02 29.2574 18.182 29.4399 18.3306C29.4686 18.3542 29.4932 18.3798 29.5229 18.4024C29.6736 18.5182 29.8324 18.6238 29.9995 18.7211C30.0108 18.7273 30.021 18.7365 30.0323 18.7427L30.0395 18.7293Z" fill="#333333"/>
<path d="M35.3989 15.5918C35.6152 15.5918 35.7905 15.2822 35.7905 14.9009C35.7905 14.5196 35.6142 14.2111 35.3979 14.2111C35.1816 14.2111 35.0063 14.5207 35.0063 14.902C35.0063 15.2833 35.1826 15.5918 35.3989 15.5918Z" fill="black"/>
</g>
<defs>
<filter id="filter0_d_186_5677" x="7" y="9" width="49" height="49" filterUnits="userSpaceOnUse" color-interpolation-filters="sRGB">
<feFlood flood-opacity="0" result="BackgroundImageFix"/>
<feColorMatrix in="SourceAlpha" type="matrix" values="0 0 0 0 0 0 0 0 0 0 0 0 0 0 0 0 0 0 127 0" result="hardAlpha"/>
<feOffset dy="4"/>
<feGaussianBlur stdDeviation="2"/>
<feComposite in2="hardAlpha" operator="out"/>
<feColorMatrix type="matrix" values="0 0 0 0 0 0 0 0 0 0 0 0 0 0 0 0 0 0 0.25 0"/>
<feBlend mode="normal" in2="BackgroundImageFix" result="effect1_dropShadow_186_5677"/>
<feBlend mode="normal" in="SourceGraphic" in2="effect1_dropShadow_186_5677" result="shape"/>
</filter>
</defs>
</svg>
