<svg width="67" height="65" viewBox="0 0 67 65" fill="none" xmlns="http://www.w3.org/2000/svg">
<g filter="url(#filter0_d_7_289)">
<path d="M56.0322 10.8582H10.9677C7.37812 10.8582 4.46774 13.7686 4.46774 17.3582V47.2712C4.46774 49.0669 5.92212 50.5212 7.71774 50.5212H59.2839C61.0795 50.5212 62.5339 49.0669 62.5339 47.2712V17.3582C62.5339 13.7686 59.6219 10.8582 56.0322 10.8582Z" fill="#FFB72D"/>
<path d="M62.5322 38.1322H4.46774V47.2712C4.46774 49.0669 5.92212 50.5212 7.71774 50.5212H59.2839C61.0795 50.5212 62.5339 49.0669 62.5339 47.2712L62.5322 38.1322Z" fill="#FF8F00"/>
<path d="M14.6045 57.0018C18.4412 57.0018 21.5514 53.8915 21.5514 50.0549C21.5514 46.2182 18.4412 43.108 14.6045 43.108C10.7678 43.108 7.65762 46.2182 7.65762 50.0549C7.65762 53.8915 10.7678 57.0018 14.6045 57.0018Z" fill="#313D4C"/>
<path d="M14.6045 52.8336C16.1392 52.8336 17.3832 51.5895 17.3832 50.0549C17.3832 48.5202 16.1392 47.2761 14.6045 47.2761C13.0698 47.2761 11.8257 48.5202 11.8257 50.0549C11.8257 51.5895 13.0698 52.8336 14.6045 52.8336Z" fill="#6B7683"/>
<path d="M51.7634 57.0018C55.6 57.0018 58.7102 53.8915 58.7102 50.0549C58.7102 46.2182 55.6 43.108 51.7634 43.108C47.9267 43.108 44.8165 46.2182 44.8165 50.0549C44.8165 53.8915 47.9267 57.0018 51.7634 57.0018Z" fill="#313D4C"/>
<path d="M51.7634 52.8336C53.298 52.8336 54.5421 51.5895 54.5421 50.0549C54.5421 48.5202 53.298 47.2761 51.7634 47.2761C50.2287 47.2761 48.9846 48.5202 48.9846 50.0549C48.9846 51.5895 50.2287 52.8336 51.7634 52.8336Z" fill="#6B7683"/>
<path d="M62.5322 45.019C61.4662 45.019 60.6017 44.1545 60.6017 43.0885C60.6017 42.0225 61.4662 41.158 62.5322 41.158V45.0174V45.019Z" fill="white"/>
<path d="M11.0311 17.1145H30.029V30.6183H11.0311C10.009 30.6183 9.18024 29.7895 9.18024 28.7674V18.967C9.18024 17.9449 10.009 17.1161 11.0311 17.1161V17.1145Z" fill="#313D4C"/>
<path d="M32.3235 17.1145H51.3214C52.3435 17.1145 53.1722 17.9433 53.1722 18.9654V28.7658C53.1722 29.7879 52.3435 30.6166 51.3214 30.6166H32.3235V17.1145Z" fill="#313D4C"/>
<path d="M58.3852 17.1145H62.5322V35.4933H58.3852C57.3631 35.4933 56.5344 34.6645 56.5344 33.6424V18.967C56.5344 17.9449 57.3631 17.1161 58.3852 17.1161V17.1145Z" fill="#313D4C"/>
</g>
<defs>
<filter id="filter0_d_7_289" x="-3" y="0" width="73" height="73" filterUnits="userSpaceOnUse" color-interpolation-filters="sRGB">
<feFlood flood-opacity="0" result="BackgroundImageFix"/>
<feColorMatrix in="SourceAlpha" type="matrix" values="0 0 0 0 0 0 0 0 0 0 0 0 0 0 0 0 0 0 127 0" result="hardAlpha"/>
<feOffset dy="4"/>
<feGaussianBlur stdDeviation="2"/>
<feComposite in2="hardAlpha" operator="out"/>
<feColorMatrix type="matrix" values="0 0 0 0 0 0 0 0 0 0 0 0 0 0 0 0 0 0 0.25 0"/>
<feBlend mode="normal" in2="BackgroundImageFix" result="effect1_dropShadow_7_289"/>
<feBlend mode="normal" in="SourceGraphic" in2="effect1_dropShadow_7_289" result="shape"/>
</filter>
</defs>
</svg>
