<svg width="170" height="170" viewBox="0 0 170 170" fill="none" xmlns="http://www.w3.org/2000/svg">
<circle cx="85" cy="85" r="85" fill="#DEFFDE"/>
<path d="M124.008 83.9024C127.443 91.5443 121.095 99.1005 118.114 99.1607H110.689L99.5391 79.371L115.982 69.8568L123.879 83.5113L124.008 83.9024ZM84.7205 50.847L80.5802 46.0263H76.1136C72.5171 45.9684 68.1315 47.2413 65.5441 50.9442L65.3451 51.2682L57.451 64.9273L73.8988 74.4461L85.8291 54.9433L84.7182 50.8447L84.7205 50.847ZM66.1968 118.242C57.8421 117.395 54.1901 108.855 55.6134 106.199L58.9784 99.2718H83.6143L82.3831 118.309H66.5879L66.1991 118.242H66.1968Z" fill="#0A9D60"/>
<path d="M117.472 99.0496C119.738 98.9825 121.277 97.6309 123.2 94.8468L110.668 115.946C109.768 117.951 108.532 118.277 107.241 118.152H96.1666L96.0995 124.88L86.7751 108.693L96.162 92.3173V99.045H117.472V99.0496ZM81.672 48.5489C79.927 45.7555 77.4183 46.0309 76.6315 46.0309H99.6728C101.874 45.825 102.779 46.6697 103.364 47.9009L108.865 57.4845L114.686 54.1195L105.364 70.3706L86.5275 70.44L92.2878 67.0727L81.672 48.5489ZM56.0919 105.199C54.9949 107.145 55.312 109.003 56.6543 111.688L44.8258 90.8315C43.5969 89.0124 43.9209 87.8506 44.6268 86.749L50.195 77.1701L44.3745 73.7379H63.0858L72.6045 90.0515L66.7771 86.6912L56.0919 105.199Z" fill="#4FC578"/>
</svg>
