<svg width="170" height="170" viewBox="0 0 170 170" fill="none" xmlns="http://www.w3.org/2000/svg">
<circle cx="85" cy="85" r="85" fill="#FFE6D2"/>
<path d="M60.9977 59.2031L53.8154 67.6775C51.9967 69.8224 51 72.5428 51 75.3556V113.918C51 121.696 57.3038 128 65.082 128H104.582C112.36 128 118.664 121.696 118.664 113.918V75.3556C118.664 72.5428 117.667 69.8224 115.849 67.6775L108.666 59.2031H60.9977Z" fill="#FF8A30"/>
<path d="M61.3471 42H108.315C110.737 42 112.705 43.9677 112.705 46.39V58.8511C112.705 59.9891 111.782 60.9113 110.644 60.9113H59.0172C57.8792 60.9113 56.957 59.9891 56.957 58.8511V46.39C56.957 43.9677 58.9247 42 61.3471 42Z" fill="#FF760D"/>
<path d="M84.2578 111.469C81.7891 111.469 79.5781 111.047 77.625 110.203C75.6719 109.359 74.1406 108.172 73.0312 106.641C71.9375 105.109 71.3672 103.375 71.3203 101.438H78.4219C78.4688 102.234 78.75 102.953 79.2656 103.594C79.7812 104.234 80.4766 104.734 81.3516 105.094C82.2266 105.453 83.1953 105.633 84.2578 105.633C85.3672 105.633 86.3672 105.438 87.2578 105.047C88.1641 104.641 88.8594 104.094 89.3438 103.406C89.8281 102.703 90.0625 101.906 90.0469 101.016C90.0625 100.094 89.8125 99.2734 89.2969 98.5547C88.7812 97.8359 88.0312 97.2812 87.0469 96.8906C86.0781 96.4844 84.9375 96.2812 83.625 96.2812H80.4609V91.0781H83.625C84.7344 91.0781 85.7266 90.8906 86.6016 90.5156C87.4766 90.125 88.1484 89.5859 88.6172 88.8984C89.0859 88.2109 89.3125 87.4297 89.2969 86.5547C89.3125 85.6953 89.1172 84.9375 88.7109 84.2812C88.3047 83.6094 87.7188 83.0938 86.9531 82.7344C86.1875 82.375 85.3125 82.1953 84.3281 82.1953C83.3281 82.1953 82.4141 82.375 81.5859 82.7344C80.7578 83.0781 80.0859 83.5781 79.5703 84.2344C79.0703 84.875 78.7969 85.625 78.75 86.4844H72C72.0625 84.5625 72.6328 82.8516 73.7109 81.3516C74.7891 79.8516 76.25 78.6875 78.0938 77.8594C79.9531 77.0156 82.0312 76.5938 84.3281 76.5938C86.6562 76.5938 88.7109 77.0078 90.4922 77.8359C92.2734 78.6641 93.6562 79.8047 94.6406 81.2578C95.625 82.7109 96.1016 84.3359 96.0703 86.1328C96.1016 87.3672 95.8438 88.4922 95.2969 89.5078C94.7656 90.5234 94.0078 91.3594 93.0234 92.0156C92.0547 92.6562 90.9297 93.0938 89.6484 93.3281V93.5859C91.3047 93.7891 92.7109 94.25 93.8672 94.9688C95.0391 95.6719 95.9219 96.5781 96.5156 97.6875C97.1094 98.7969 97.3906 100.062 97.3594 101.484C97.3906 103.375 96.8438 105.086 95.7188 106.617C94.5938 108.133 93.0312 109.32 91.0312 110.18C89.0312 111.039 86.7734 111.469 84.2578 111.469Z" fill="white"/>
</svg>
