<svg width="170" height="170" viewBox="0 0 170 170" fill="none" xmlns="http://www.w3.org/2000/svg">
<circle cx="85" cy="85" r="85" fill="#D5FFF5"/>
<path d="M84.5 127C107.972 127 127 107.972 127 84.5C127 61.0279 107.972 42 84.5 42C61.0279 42 42 61.0279 42 84.5C42 107.972 61.0279 127 84.5 127Z" fill="#D0D5DA"/>
<path d="M119.966 85.0368C119.966 83.0822 119.398 81.2582 118.422 79.724C117.182 77.7765 116.505 75.4728 116.747 73.1762C116.956 71.1812 116.565 69.1055 115.484 67.2316C114.508 65.5407 113.109 64.2463 111.499 63.4056C109.288 62.2513 107.673 60.3086 106.537 58.088C105.704 56.4564 104.409 55.041 102.702 54.0553C101.011 53.0792 99.1537 52.6589 97.3368 52.7349C94.8455 52.8394 92.4753 51.9654 90.3806 50.6093C88.844 49.6142 87.0129 49.0347 85.0416 49.0347C83.0871 49.0347 81.2631 49.6023 79.7288 50.5784C77.7814 51.8181 75.4777 52.495 73.1811 52.2527C71.1861 52.0437 69.1104 52.4356 67.2389 53.5162C65.5479 54.4923 64.256 55.8912 63.4152 57.5014C62.261 59.7125 60.3183 61.3275 58.0953 62.4627C56.4637 63.2963 55.0458 64.5907 54.0602 66.2983C53.0841 67.9893 52.6637 69.8465 52.7397 71.6633C52.8442 74.1547 51.9703 76.5273 50.6142 78.6196C49.619 80.1586 49.0396 81.9873 49.0396 83.9585C49.0396 85.9131 49.6072 87.7371 50.5833 89.2713C51.823 91.2188 52.4999 93.5201 52.2576 95.8191C52.0486 97.8141 52.4405 99.8898 53.5211 101.764C54.4972 103.455 55.8961 104.747 57.5063 105.587C59.7174 106.742 61.3324 108.684 62.47 110.907C63.3036 112.539 64.5979 113.957 66.3055 114.942C67.9965 115.918 69.8537 116.339 71.6706 116.263C74.1619 116.158 76.5345 117.032 78.6269 118.388C80.1658 119.384 81.9946 119.963 83.9658 119.963C85.9228 119.963 87.7444 119.395 89.281 118.419C91.2284 117.18 93.5298 116.503 95.8264 116.745C97.8213 116.954 99.8971 116.562 101.771 115.481C103.462 114.505 104.754 113.106 105.595 111.496C106.749 109.285 108.692 107.67 110.915 106.533C112.546 105.699 113.962 104.405 114.947 102.697C115.923 101.006 116.344 99.1488 116.268 97.332C116.163 94.8406 117.037 92.468 118.393 90.3757C119.388 88.8367 119.966 87.008 119.966 85.0368Z" fill="#03905A"/>
<path d="M78.1804 91.1383C81.5244 94.8171 81.2512 100.51 77.5724 103.854C73.8936 107.198 68.2008 106.925 64.8569 103.246C61.5129 99.567 59.1807 91.0076 62.8595 87.6661C66.5383 84.3221 74.8365 87.4618 78.178 91.1406L78.1804 91.1383Z" fill="white"/>
<path d="M72.3951 103.248C75.2073 103.248 77.4871 100.968 77.4871 98.1561C77.4871 95.3439 75.2073 93.0642 72.3951 93.0642C69.583 93.0642 67.3032 95.3439 67.3032 98.1561C67.3032 100.968 69.583 103.248 72.3951 103.248Z" fill="#FFC261"/>
<path d="M79.4106 82.0585C82.7118 88.3355 90.4732 90.7485 96.7503 87.4473C103.027 84.1461 105.44 76.3847 102.139 70.1077L79.4106 82.0585Z" fill="#D14141"/>
<path d="M98.8121 71.8579C101.147 76.2967 99.4391 81.7853 95.0027 84.1199C90.5662 86.4544 85.0753 84.7468 82.7407 80.3104L98.8121 71.8603V71.8579Z" fill="#F25F5F"/>
<path d="M102.253 107.017C106.219 103.923 107.2 98.5481 104.44 95.0118C102.269 92.2283 100.78 94.4347 98.3102 97.0091C98.1653 96.2753 97.8471 95.5366 97.3317 94.874C95.845 92.9669 94.705 94.1235 93.1423 95.3419C91.5795 96.5602 90.1807 97.3844 91.6674 99.2915C92.1851 99.9541 92.824 100.443 93.5009 100.762C90.4039 102.529 87.9031 103.438 90.0738 106.222C92.8311 109.758 98.2841 110.114 102.25 107.02L102.253 107.017Z" fill="#E5E9EE"/>
<path d="M75.7141 68.0043L71.9861 65.4324C70.9453 64.7144 69.5195 64.9761 68.8015 66.0168L66.2296 69.7448C65.5116 70.7856 65.7732 72.2114 66.814 72.9294L70.542 75.5013C71.5828 76.2193 73.0086 75.9577 73.7266 74.9169L76.2985 71.1889C77.0165 70.1481 76.7549 68.7223 75.7141 68.0043Z" fill="#FFD361"/>
<path d="M97.1034 64.5864L96.6109 61.6685C96.4733 60.8537 95.7013 60.3046 94.8865 60.4422L91.9685 60.9347C91.1537 61.0722 90.6047 61.8443 90.7422 62.6591L91.2347 65.577C91.3723 66.3918 92.1443 66.9409 92.9591 66.8033L95.8771 66.3108C96.6919 66.1733 97.2409 65.4012 97.1034 64.5864Z" fill="#FFD361"/>
</svg>
