<svg width="170" height="170" viewBox="0 0 170 170" fill="none" xmlns="http://www.w3.org/2000/svg">
<circle cx="85" cy="85" r="85" fill="#DEF1FF"/>
<path d="M70.1022 69.4378C71.8507 70.5764 73.0064 72.1553 72.985 74.2429C72.9707 75.762 73.659 76.8407 74.5382 77.8368C75.2222 78.612 75.8706 79.4 76.452 80.2507C76.8097 80.7737 76.8767 81.3651 76.9009 81.9793C76.9493 83.2147 77.6932 83.9187 78.9443 83.9486C79.265 83.9557 79.587 83.9529 79.9076 83.9515C80.8909 83.9486 81.1707 83.5382 80.747 82.7202C80.1513 81.5688 80.7455 79.0865 81.8528 78.4068C82.6907 77.8923 83.6654 78.2543 84.5759 78.1716C85.639 78.0762 86.3743 78.4524 86.6151 79.5824C86.6721 79.8489 86.9001 80.1552 87.2336 80.0213C87.5642 79.8888 88.0757 79.9472 88.137 79.4114C88.1741 79.0936 88.1997 78.7701 88.1855 78.4509C88.1427 77.5033 88.4135 76.7067 89.1687 76.0869C89.7686 75.5952 90.0764 74.9868 90.1577 74.1631C90.256 73.167 90.997 72.5058 91.9389 72.2807C92.5973 72.1239 92.9407 71.8332 93.0732 71.2105C93.2029 70.5949 93.5876 70.3028 94.2189 70.3256C94.397 70.3327 94.578 70.3284 94.7533 70.3042C95.2164 70.2387 95.7123 70.203 95.6966 69.539C95.681 68.8749 95.1651 68.7994 94.7162 68.8236C93.5264 68.8906 92.5574 68.5415 91.7993 67.5939C91.5542 67.2875 91.4558 67.1094 91.6539 66.6819C92.2154 65.4678 91.8577 64.9804 90.5096 64.9476C90.2603 64.9419 90.008 64.9248 89.7615 64.9476C89.391 64.9804 88.9065 64.7339 88.6828 65.1571C88.4434 65.6074 88.64 66.1062 88.9735 66.4353C89.4608 66.9156 89.5292 67.2932 88.9507 67.7321C88.4348 68.124 88.6286 68.7153 88.6087 69.2298C88.5845 69.8838 88.5075 70.4638 87.6881 70.5365C86.9899 70.5978 86.3771 70.4952 86.2589 69.6402C86.1776 69.0545 85.7487 68.8992 85.2742 68.8365C84.888 68.7852 84.4904 68.8065 84.0986 68.8023C83.2607 68.7937 82.4042 68.8778 82.4199 67.6038C82.4342 66.3997 83.2436 66.4695 84.0458 66.461C84.3665 66.4581 84.6899 66.4767 85.0077 66.4425C85.6433 66.3726 86.189 66.1917 86.2774 65.4108C86.3515 64.7524 86.7975 64.513 87.4145 64.5629C88.0187 64.6128 88.261 64.3506 88.2197 63.7521C88.1627 62.9227 88.6272 62.7033 89.3939 62.595C92.023 62.2202 94.0023 63.45 95.7465 65.1443C96.9293 66.2914 98.2417 67.2433 99.6496 68.0399C100.825 68.7054 102.175 68.3805 103.463 68.3135C100.664 65.0374 97.0333 62.4938 92.8951 61.0146C90.4213 61.4564 87.9218 61.2255 85.4395 61.1814C84.328 61.1614 83.5371 61.6032 83.0127 62.3256C82.6066 62.8871 81.9582 63.3588 81.8784 64.1824C81.8129 64.8607 81.2429 64.9248 80.6643 64.9263C80.0729 64.9277 79.5514 64.8222 79.4716 64.1482C79.3704 63.2989 78.8546 63.1365 78.1292 63.1536C77.1688 63.1764 76.2055 63.1721 75.245 63.1479C74.4542 63.1293 73.7944 62.9028 73.6006 62.0663C70.477 63.5868 67.7225 65.7414 65.4966 68.3605C65.4866 68.4033 65.4695 68.4417 65.4624 68.4873C67.0627 68.5401 68.6744 68.5087 70.1022 69.4378Z" fill="#7BD58F"/>
<path d="M99.7778 91.9342C98.8786 91.843 97.9011 90.8611 97.837 89.9833C97.6617 87.6207 96.1099 86.1586 93.7743 86.1558C92.3464 86.1558 90.8445 85.8722 89.5078 86.2199C87.3062 86.7913 87.3646 84.2477 85.8898 83.9399C85.639 83.8872 85.4366 83.6079 85.3953 83.2901C85.3725 83.1163 85.3568 82.9168 85.2628 82.7828C84.9621 82.3553 84.536 82.1245 84.0829 82.495C83.4986 82.9738 83.5442 83.8715 82.9429 84.376C82.8517 84.4515 83.0155 84.6296 83.1523 84.688C84.3992 85.2196 84.9635 86.6759 86.4227 87.0037C86.9215 87.1162 87.4373 87.6178 87.9631 87.9128C88.3137 88.1095 88.4149 88.3346 88.0957 88.6666C86.7861 90.0247 86.4968 91.6777 86.6721 93.4888C86.7676 94.4707 87.5071 95.2929 88.5189 95.3812C89.4181 95.4596 90.5011 96.4343 90.5153 97.2722C90.5467 98.9851 90.5167 100.698 90.5196 102.412C90.5196 102.988 90.2902 103.368 89.7002 103.488C89.2342 103.584 88.7626 103.67 88.811 104.323C88.8623 104.994 89.4508 104.956 89.8484 105.018C91.272 105.246 92.355 104.401 93.3268 103.593C95.7679 101.563 97.9652 99.2629 100.153 96.9658C100.914 96.1664 101.666 95.2487 101.689 94.0132C101.714 92.9131 100.925 92.0496 99.7792 91.9327L99.7778 91.9342Z" fill="#7BD58F"/>
<path d="M85 119C103.778 119 119 103.778 119 85C119 66.2223 103.778 51 85 51C66.2223 51 51 66.2223 51 85C51 103.778 66.2223 119 85 119Z" fill="#2F81F9"/>
<path d="M65.0195 64.0975C67.4459 65.6776 69.0497 67.8687 69.0201 70.7658C69.0003 72.8739 69.9554 74.3709 71.1756 75.7532C72.1248 76.829 73.0246 77.9226 73.8314 79.1032C74.3278 79.8289 74.4208 80.6496 74.4544 81.5019C74.5216 83.2165 75.5539 84.1934 77.2902 84.2349C77.7351 84.2448 78.1821 84.2408 78.627 84.2389C79.9915 84.2349 80.3798 83.6654 79.7918 82.5303C78.9652 80.9324 79.7898 77.4875 81.3264 76.5442C82.4892 75.8303 83.8418 76.3326 85.1055 76.2179C86.5807 76.0854 87.6011 76.6075 87.9353 78.1757C88.0144 78.5455 88.3308 78.9707 88.7936 78.7848C89.2524 78.6009 89.9623 78.6819 90.0474 77.9384C90.0988 77.4974 90.1344 77.0485 90.1146 76.6055C90.0553 75.2904 90.431 74.185 91.4791 73.3248C92.3117 72.6425 92.7388 71.7981 92.8515 70.6551C92.988 69.2728 94.0163 68.3552 95.3235 68.0427C96.2371 67.8252 96.7137 67.4218 96.8976 66.5576C97.0776 65.7033 97.6115 65.2979 98.4875 65.3295C98.7347 65.3394 98.9859 65.3335 99.2291 65.2999C99.8718 65.2089 100.56 65.1595 100.538 64.2379C100.517 63.3164 99.8006 63.2116 99.1777 63.2452C97.5265 63.3381 96.1817 62.8536 95.1297 61.5386C94.7895 61.1134 94.6531 60.8662 94.928 60.2729C95.7071 58.588 95.2107 57.9117 93.34 57.8662C92.9939 57.8583 92.6439 57.8346 92.3018 57.8662C91.7876 57.9117 91.1152 57.5696 90.8048 58.1569C90.4725 58.7819 90.7454 59.474 91.2082 59.9308C91.8845 60.5972 91.9794 61.1213 91.1765 61.7304C90.4607 62.2742 90.7296 63.0949 90.7019 63.8088C90.6683 64.7165 90.5615 65.5213 89.4244 65.6222C88.4554 65.7072 87.6051 65.5648 87.4409 64.3783C87.3282 63.5655 86.733 63.35 86.0745 63.263C85.5385 63.1918 84.9868 63.2215 84.443 63.2155C83.2802 63.2037 82.0917 63.3203 82.1134 61.5524C82.1332 59.8814 83.2564 59.9783 84.3698 59.9664C84.8148 59.9624 85.2637 59.9882 85.7047 59.9407C86.5866 59.8438 87.344 59.5926 87.4667 58.5089C87.5695 57.5953 88.1885 57.2631 89.0447 57.3323C89.8832 57.4015 90.2194 57.0377 90.1621 56.2071C90.083 55.0561 90.7276 54.7516 91.7916 54.6013C95.4401 54.0812 98.187 55.7878 100.607 58.1391C102.249 59.7311 104.07 61.0521 106.024 62.1575C107.655 63.081 109.528 62.6302 111.316 62.5372C107.432 57.9908 102.393 54.4609 96.6504 52.4082C93.2174 53.0212 89.7487 52.7009 86.3039 52.6396C84.7614 52.6119 83.6638 53.2249 82.9361 54.2276C82.3725 55.0067 81.4727 55.6613 81.362 56.8043C81.271 57.7456 80.48 57.8346 79.6771 57.8366C78.8564 57.8386 78.1326 57.6922 78.0219 56.7568C77.8815 55.5782 77.1656 55.3528 76.159 55.3765C74.8261 55.4081 73.4893 55.4022 72.1565 55.3686C71.0589 55.3429 70.1433 55.0285 69.8744 53.8676C65.5396 55.9777 61.717 58.9677 58.628 62.6025C58.6142 62.6618 58.5905 62.7152 58.5806 62.7785C60.8014 62.8516 63.038 62.8081 65.0195 64.0975Z" fill="#7BD58F"/>
<path d="M106.202 95.3168C104.954 95.1902 103.598 93.8277 103.509 92.6095C103.265 89.3307 101.112 87.3018 97.8707 87.2978C95.8892 87.2978 93.8048 86.9043 91.9499 87.3868C88.8946 88.1798 88.9757 84.6499 86.9289 84.2227C86.5809 84.1495 86.3 83.7619 86.2427 83.3209C86.2111 83.0797 86.1893 82.8028 86.0588 82.6169C85.6415 82.0237 85.0502 81.7033 84.4214 82.2175C83.6106 82.8819 83.6739 84.1278 82.8393 84.8278C82.7128 84.9326 82.9402 85.1798 83.13 85.2609C84.8604 85.9985 85.6435 88.0196 87.6685 88.4744C88.3607 88.6307 89.0765 89.3268 89.8062 89.7361C90.2927 90.009 90.4331 90.3215 89.9902 90.7822C88.1728 92.6668 87.7713 94.9608 88.0146 97.4743C88.1471 98.8368 89.1734 99.9779 90.5775 100.1C91.8253 100.209 93.3283 101.562 93.348 102.725C93.3915 105.102 93.35 107.479 93.354 109.858C93.354 110.657 93.0356 111.185 92.2169 111.351C91.5702 111.483 90.9156 111.604 90.9829 112.51C91.0541 113.441 91.8708 113.388 92.4225 113.475C94.3981 113.791 95.9011 112.618 97.2497 111.497C100.637 108.679 103.687 105.487 106.722 102.299C107.778 101.19 108.822 99.9166 108.854 98.202C108.89 96.6753 107.794 95.4769 106.204 95.3148L106.202 95.3168Z" fill="#7BD58F"/>
<path d="M84.1406 102.469C81.8281 102.469 79.7344 102.039 77.8594 101.18C75.9844 100.32 74.5078 99.125 73.4297 97.5938C72.3672 96.0625 71.8125 94.3438 71.7656 92.4375H78.5859C78.6641 93.3125 78.9531 94.0859 79.4531 94.7578C79.9688 95.4297 80.6328 95.9609 81.4453 96.3516C82.2734 96.7266 83.1719 96.9141 84.1406 96.9141C85.2969 96.9141 86.3281 96.6562 87.2344 96.1406C88.1562 95.625 88.875 94.9141 89.3906 94.0078C89.9062 93.0859 90.1641 92.0469 90.1641 90.8906C90.1641 89.6875 89.8984 88.6328 89.3672 87.7266C88.8516 86.8047 88.125 86.0859 87.1875 85.5703C86.2656 85.0391 85.2109 84.7734 84.0234 84.7734C82.7578 84.7578 81.6875 84.9844 80.8125 85.4531C79.9375 85.9219 79.2422 86.6406 78.7266 87.6094H72.3281L74.1797 68.0625H95.0625V73.8516H79.9922L79.0547 82.4062H79.3125C79.9688 81.5469 80.9062 80.8516 82.125 80.3203C83.3438 79.7891 84.6797 79.5234 86.1328 79.5234C88.1797 79.5234 90.0312 80 91.6875 80.9531C93.3594 81.8906 94.6562 83.2109 95.5781 84.9141C96.5156 86.6172 96.9766 88.5469 96.9609 90.7031C96.9766 92.9531 96.4375 94.9766 95.3438 96.7734C94.2656 98.5547 92.7578 99.9531 90.8203 100.969C88.8828 101.969 86.6562 102.469 84.1406 102.469Z" fill="white"/>
</svg>
