<svg width="170" height="170" viewBox="0 0 170 170" fill="none" xmlns="http://www.w3.org/2000/svg">
<circle cx="85" cy="85" r="85" fill="#FCFFDE"/>
<path d="M116.209 67.7054C112.761 66.7793 109.218 68.8306 108.295 72.2883L104.008 81.6966L99.6327 74.0973L87.9348 52.0329V52.0286C86.4741 49.274 83.1149 48.203 80.4288 49.6354C77.7427 51.0678 76.7481 54.4607 78.2088 57.2152L88.2735 76.2005L85.8592 77.5983L72.7093 56.4925C71.061 53.8483 67.6349 53.0153 65.0545 54.6316C62.4742 56.248 61.719 59.7036 63.3674 62.3478L76.39 83.248L74.6122 85.0029L60.9078 68.6228C58.9488 66.2816 55.4731 65.9743 53.143 67.9347C50.8129 69.8952 50.5108 73.3832 52.4699 75.7245L66.7374 92.7774L64.5605 94.9261L53.5378 83.4796C51.3717 81.2292 47.8399 81.1232 45.6522 83.2415C43.4645 85.3599 43.4472 88.9021 45.6133 91.1524L66.3447 112.682L66.3792 112.639C74.4892 123.064 89.2034 126.193 100.947 119.394C107.369 115.675 111.682 109.696 113.46 103.038L120.778 75.6444C121.702 72.1866 119.656 68.6337 116.209 67.7075V67.7054Z" fill="#FFBD8F"/>
<path d="M109.223 59.9999C107.931 59.9999 106.883 58.9512 106.883 57.6591C106.883 51.2952 101.705 46.1174 95.3408 46.1174C94.0487 46.1174 93 45.0687 93 43.7766C93 42.4845 94.0487 41.4358 95.3408 41.4358C104.286 41.4358 111.564 48.7141 111.564 57.6591C111.564 58.9512 110.515 59.9999 109.223 59.9999Z" fill="#868686"/>
<path d="M118.284 58.702C116.992 58.702 115.943 57.6533 115.943 56.3612C115.943 46.0617 107.563 37.6816 97.2637 37.6816C95.9715 37.6816 94.9229 36.6329 94.9229 35.3408C94.9229 34.0487 95.9715 33 97.2637 33C110.144 33 120.625 43.4806 120.625 56.3612C120.625 57.6533 119.576 58.702 118.284 58.702Z" fill="#868686"/>
</svg>
