<svg width="40" height="40" viewBox="0 0 40 40" fill="none" xmlns="http://www.w3.org/2000/svg">
<rect x="8.5" y="8.5" width="23" height="23" stroke="white"/>
<rect x="10" y="10" width="20" height="20" rx="5" fill="white"/>
<rect x="10" y="10" width="20" height="20" rx="5" stroke="#3259D6" stroke-width="2"/>
<path d="M26.7099 15.2099C26.617 15.1161 26.5064 15.0417 26.3845 14.991C26.2627 14.9402 26.132 14.9141 25.9999 14.9141C25.8679 14.9141 25.7372 14.9402 25.6154 14.991C25.4935 15.0417 25.3829 15.1161 25.29 15.2099L17.84 22.6699L14.7099 19.5299C14.6134 19.4366 14.4995 19.3633 14.3746 19.3141C14.2498 19.2649 14.1165 19.2408 13.9823 19.2431C13.8481 19.2454 13.7157 19.2741 13.5926 19.3276C13.4695 19.3811 13.3582 19.4583 13.2649 19.5549C13.1717 19.6514 13.0984 19.7653 13.0492 19.8902C13 20.015 12.9759 20.1484 12.9782 20.2825C12.9805 20.4167 13.0092 20.5491 13.0627 20.6722C13.1162 20.7953 13.1934 20.9066 13.2899 20.9999L17.13 24.8399C17.2229 24.9336 17.3335 25.008 17.4554 25.0588C17.5772 25.1095 17.7079 25.1357 17.84 25.1357C17.972 25.1357 18.1027 25.1095 18.2245 25.0588C18.3464 25.008 18.457 24.9336 18.55 24.8399L26.7099 16.6799C26.8115 16.5862 26.8925 16.4726 26.9479 16.3461C27.0033 16.2196 27.0319 16.083 27.0319 15.9449C27.0319 15.8068 27.0033 15.6702 26.9479 15.5437C26.8925 15.4172 26.8115 15.3035 26.7099 15.2099Z" fill="#3259D6"/>
</svg>
