<svg width="40" height="60" viewBox="0 0 40 60" fill="none" xmlns="http://www.w3.org/2000/svg">
<path d="M5.05217 44.0905L4.44678 37.4691L6.06923 55.8886C6.22164 58.2066 7.94095 59.9999 10.0107 59.9999H29.8974C31.9672 59.9999 33.6865 58.2066 33.8389 55.8886L35.4613 37.4691L34.8559 44.0905H5.05217Z" fill="#D0D5DA"/>
<path d="M2.86475 19.5135L3.87895 31.0125H36.0317L37.0444 19.5135H20.8769H17.283H2.86475Z" fill="#D0D5DA"/>
<path d="M37.1753 13.1418H2.82326C1.26349 13.1418 0 14.5624 0 16.3125C0 18.0627 1.26349 19.4832 2.82326 19.4832H37.1767C38.7365 19.4832 40 18.0643 40 16.3125C40 14.5608 38.7351 13.1418 37.1753 13.1418Z" fill="#E5E9EE"/>
<path d="M23.8252 7.78759C23.9733 7.19728 24.3978 6.73815 24.9277 6.59258L34.3376 4.01699C35.3105 3.75143 35.906 2.65081 35.6695 1.55818C35.433 0.463958 34.4473 -0.215933 33.4801 0.0624223L24.0688 2.63801C22.2697 3.13073 20.841 4.68248 20.3367 6.68216L18.7114 13.1435H22.4777L23.8238 7.78919L23.8252 7.78759Z" fill="#E32939"/>
<path d="M3.85742 31.0126L4.44714 37.4691L5.05254 44.0905H34.8563L35.4617 37.4691L36.0529 31.0126H36.0315H3.87879H3.85742Z" fill="#E32939"/>
</svg>
