<svg width="228" height="42" viewBox="0 0 228 42" fill="none" xmlns="http://www.w3.org/2000/svg">
<path d="M17.5 33C26.0604 33 33 26.0604 33 17.5C33 8.93959 26.0604 2 17.5 2C8.93959 2 2 8.93959 2 17.5C2 26.0604 8.93959 33 17.5 33Z" fill="#216DFF"/>
<path d="M8.65906 8.25129C9.73268 8.95041 10.4423 9.91991 10.4292 11.2018C10.4204 12.1345 10.8431 12.7969 11.3829 13.4085C11.8029 13.8845 12.2011 14.3684 12.5581 14.8908C12.7777 15.2119 12.8188 15.575 12.8337 15.9522C12.8634 16.7108 13.3202 17.143 14.0884 17.1614C14.2853 17.1658 14.4831 17.164 14.6799 17.1632C15.2837 17.1614 15.4555 16.9094 15.1953 16.4072C14.8296 15.7002 15.1944 14.1759 15.8743 13.7585C16.3888 13.4427 16.9873 13.6649 17.5464 13.6142C18.1992 13.5555 18.6507 13.7865 18.7986 14.4804C18.8336 14.644 18.9736 14.8322 19.1783 14.7499C19.3813 14.6685 19.6954 14.7044 19.7331 14.3754C19.7558 14.1803 19.7716 13.9817 19.7628 13.7857C19.7366 13.2038 19.9028 12.7147 20.3666 12.334C20.7349 12.0322 20.9239 11.6585 20.9738 11.1528C21.0342 10.5412 21.4892 10.1352 22.0676 9.99691C22.4718 9.90066 22.6827 9.72216 22.7641 9.33979C22.8437 8.96179 23.0799 8.78241 23.4676 8.79641C23.5769 8.80079 23.6881 8.79816 23.7957 8.78329C24.0801 8.74304 24.3846 8.72116 24.3749 8.31341C24.3653 7.90566 24.0486 7.85929 23.7729 7.87416C23.0423 7.91529 22.4473 7.70091 21.9818 7.11904C21.8313 6.93091 21.7709 6.82154 21.8926 6.55904C22.2373 5.81354 22.0177 5.51429 21.1899 5.49416C21.0368 5.49066 20.8819 5.48016 20.7306 5.49416C20.5031 5.51429 20.2056 5.36291 20.0682 5.62279C19.9212 5.89929 20.0419 6.20554 20.2467 6.40766C20.5459 6.70254 20.5879 6.93441 20.2327 7.20391C19.9159 7.44454 20.0349 7.80766 20.0227 8.12354C20.0078 8.52516 19.9606 8.88129 19.4574 8.92591C19.0287 8.96354 18.6524 8.90054 18.5798 8.37554C18.5299 8.01591 18.2666 7.92054 17.9752 7.88204C17.7381 7.85054 17.4939 7.86366 17.2533 7.86104C16.7388 7.85579 16.2129 7.90741 16.2226 7.12516C16.2313 6.38579 16.7283 6.42866 17.2209 6.42341C17.4178 6.42166 17.6164 6.43304 17.8116 6.41204C18.2018 6.36916 18.5369 6.25804 18.5912 5.77854C18.6367 5.37429 18.9106 5.22729 19.2894 5.25791C19.6604 5.28854 19.8092 5.12754 19.7838 4.76004C19.7488 4.25079 20.0341 4.11604 20.5048 4.04954C22.1192 3.81941 23.3346 4.57454 24.4056 5.61491C25.1318 6.31929 25.9377 6.90379 26.8022 7.39291C27.5241 7.80154 28.3527 7.60204 29.1437 7.56091C27.4252 5.54929 25.1957 3.98741 22.6547 3.07916C21.1357 3.35041 19.6009 3.20866 18.0767 3.18154C17.3942 3.16929 16.9086 3.44054 16.5866 3.88416C16.3372 4.22891 15.9391 4.51854 15.8901 5.02429C15.8498 5.44079 15.4998 5.48016 15.1446 5.48104C14.7814 5.48191 14.4612 5.41716 14.4122 5.00329C14.3501 4.48179 14.0333 4.38204 13.5879 4.39254C12.9982 4.40654 12.4067 4.40391 11.8169 4.38904C11.3313 4.37766 10.9262 4.23854 10.8072 3.72491C8.88918 4.65854 7.19781 5.98154 5.83106 7.58979C5.82493 7.61604 5.81443 7.63966 5.81006 7.66766C6.79268 7.70004 7.78231 7.68079 8.65906 8.25129Z" fill="#7BD58F"/>
<path d="M26.8808 22.0649C26.3287 22.0089 25.7284 21.406 25.689 20.867C25.5814 19.4163 24.6285 18.5185 23.1944 18.5168C22.3177 18.5168 21.3954 18.3427 20.5747 18.5562C19.2228 18.907 19.2587 17.3452 18.353 17.1562C18.199 17.1238 18.0748 16.9523 18.0494 16.7572C18.0354 16.6504 18.0258 16.5279 17.968 16.4457C17.7834 16.1832 17.5218 16.0414 17.2435 16.2689C16.8848 16.5629 16.9128 17.1142 16.5435 17.4239C16.4875 17.4703 16.5882 17.5797 16.6722 17.6155C17.4378 17.9419 17.7843 18.8362 18.6803 19.0374C18.9865 19.1065 19.3033 19.4145 19.6262 19.5957C19.8414 19.7164 19.9035 19.8547 19.7075 20.0585C18.9034 20.8924 18.7258 21.9074 18.8334 23.0195C18.892 23.6224 19.3462 24.1273 19.9674 24.1815C20.5195 24.2297 21.1845 24.8282 21.1933 25.3427C21.2125 26.3944 21.1942 27.4462 21.1959 28.4988C21.1959 28.8523 21.055 29.0859 20.6928 29.1594C20.4067 29.218 20.117 29.2714 20.1468 29.6722C20.1783 30.0843 20.5397 30.0607 20.7838 30.0992C21.6579 30.2392 22.3229 29.7203 22.9197 29.2242C24.4185 27.9773 25.7678 26.565 27.1109 25.1545C27.5782 24.6637 28.0402 24.1002 28.0542 23.3415C28.0699 22.666 27.5852 22.1358 26.8817 22.064L26.8808 22.0649Z" fill="#7BD58F"/>
<path d="M49.6875 28.0312L48.2812 27.625C47.5104 25.6667 47.1771 23.3229 47.2812 20.5938C47.4688 18.3438 47.7917 15.9583 48.25 13.4375C48.7292 10.8958 49.5208 8.57292 50.625 6.46875C52.5417 5.63542 54.9583 5.32292 57.875 5.53125C60.2292 5.40625 62.3438 5.89583 64.2188 7L64.3438 10.1875L63.2812 11.6562H60.6875C58.9375 11.2812 57.1354 11.0938 55.2812 11.0938C54.6562 12.7188 54.3021 14.5208 54.2188 16.5C57.0312 16.375 58.9896 16.3438 60.0938 16.4062C61.1979 16.4688 61.9479 16.6875 62.3438 17.0625L62.5312 19.6562C61.6354 20.3021 58.7396 20.5625 53.8438 20.4375L53.5312 22.8125C54.9479 23.0625 56.5833 23.125 58.4375 23C60.2917 22.875 61.9688 23.0625 63.4688 23.5625C64.0312 24.2083 64.2812 25.2083 64.2188 26.5625L63.4062 27.75L61.5938 28.0312H49.6875ZM76.3813 27.9062C74.0271 27.7812 71.975 26.8542 70.225 25.125C69.2458 23.8958 68.6625 22.5104 68.475 20.9688C68.2875 19.4062 68.2563 17.75 68.3813 16C68.6313 13.0208 69.8083 10.4167 71.9125 8.1875C73.1417 7.08333 74.4958 6.3125 75.975 5.875C77.475 5.4375 79.1 5.28125 80.85 5.40625C82.2667 5.96875 83.4438 6.70833 84.3813 7.625C85.4854 9 85.9125 10.6146 85.6625 12.4688L84.7563 14.5312C83.9854 15.0938 82.6833 15.3438 80.85 15.2812C80.1417 14.9688 79.5792 14.4688 79.1625 13.7812V12.4688L79.35 11.7188C78.85 11.2396 78.225 11.0625 77.475 11.1875C76.3708 11.7917 75.6313 12.6562 75.2563 13.7812C74.5688 16.1146 74.2563 18.1042 74.3188 19.75C74.7354 21.25 75.3604 22.1771 76.1938 22.5312L77.85 22.7188L78.7875 21.7812L79.725 19.5312L83.0688 19.375L85.1313 20.6562L85.3188 22.3438C85.3188 23.5729 84.8813 24.6875 84.0063 25.6875C81.9854 27.5625 79.4438 28.3021 76.3813 27.9062ZM98.075 27.9688C95.7208 27.8438 93.6792 26.9167 91.95 25.1875C90.95 23.9583 90.3563 22.5729 90.1688 21.0312C89.9813 19.4688 89.95 17.8125 90.075 16.0625C90.325 13.0833 91.5021 10.4792 93.6063 8.25C95.8563 6.14583 98.5854 5.21875 101.794 5.46875C103.419 5.84375 104.783 6.70833 105.888 8.0625C106.638 9.4375 107.138 10.9375 107.388 12.5625C107.638 14.1667 107.7 15.8333 107.575 17.5625C107.325 19.1667 106.919 20.7188 106.356 22.2188C105.794 23.6979 105.023 25.125 104.044 26.5C102.294 27.6042 100.304 28.0938 98.075 27.9688ZM99.45 22.5C100.7 20.8958 101.294 18.625 101.231 15.6875C101.356 14.0833 100.929 12.6667 99.95 11.4375L99.2 11.25C98.075 11.8542 97.3354 12.7188 96.9813 13.8438C96.2521 15.8854 95.8771 17.8021 95.8563 19.5938C96.2313 21.4896 97.1583 22.5521 98.6375 22.7812L99.45 22.5ZM116.706 27.9688L115.238 26.5C114.842 25.625 114.654 24.6771 114.675 23.6562C115.113 21.7812 115.456 19.7917 115.706 17.6875C115.956 15.5833 116.081 13.4792 116.081 11.375C114.602 11.5 113.238 11.1875 111.988 10.4375C111.613 9.5625 111.488 8.63542 111.613 7.65625L112.363 6.15625L114.05 5.40625H124.456C125.519 5.63542 126.206 6.01042 126.519 6.53125L126.863 9.875L125.581 11.1875L122.956 11.375C122.727 14.0417 122.56 16.8125 122.456 19.6875C122.352 22.5625 121.738 25.1458 120.613 27.4375C119.508 28.0417 118.206 28.2188 116.706 27.9688ZM133.056 28.0312C132.369 27.9062 131.817 27.6667 131.4 27.3125C130.817 25.8542 130.567 23.6146 130.65 20.5938C130.921 18.1146 131.265 15.6667 131.681 13.25C132.119 10.8333 132.89 8.57292 133.994 6.46875C136.723 5.46875 139.765 5.15625 143.119 5.53125C144.577 6.17708 145.754 6.92708 146.65 7.78125C147.588 9.28125 148.025 11.0729 147.963 13.1562C147.838 15.7604 146.66 18 144.431 19.875C146.16 21.9792 147.088 24.4167 147.213 27.1875C146.817 27.9583 145.327 28.2396 142.744 28.0312L141.056 27.3125C140.577 24.9583 139.713 22.7188 138.463 20.5938L137.338 20.4062C137.338 23.0104 136.91 25.5 136.056 27.875C135.181 28.0208 134.181 28.0729 133.056 28.0312ZM140.338 16.125C141.317 15.1458 141.806 13.9688 141.806 12.5938C141.681 12.0104 141.338 11.5208 140.775 11.125H138.65C138.025 12.7292 137.65 14.5 137.525 16.4375C138.213 16.4583 138.963 16.4167 139.775 16.3125L140.338 16.125ZM153.938 28.0625C153.229 27.9583 152.677 27.7083 152.281 27.3125L151.719 25.0625C152.01 22.2917 152.417 19.2188 152.938 15.8438C153.479 12.4479 154.438 9.32292 155.812 6.46875C158.042 5.46875 160.583 5.15625 163.438 5.53125L165.844 6.65625C167.219 9.13542 168.042 11.8646 168.312 14.8438C168.604 17.8021 168.698 20.9167 168.594 24.1875C168.448 25.5625 168.135 26.6875 167.656 27.5625L163.25 28.0625L162.312 27.5L162.125 25.25L163.062 20.7812C161.688 20.4062 160.219 20.3125 158.656 20.5C158.177 23.0208 157.677 25.4375 157.156 27.75L153.938 28.0625ZM162.688 15.4062L161.562 11.6875L160.469 11.5C159.927 12.8333 159.573 14.4583 159.406 16.375C160.219 16.4583 161.302 16.4792 162.656 16.4375L162.688 15.4062ZM180.6 27.9062C178.246 27.7812 176.194 26.8542 174.444 25.125C173.465 23.8958 172.881 22.5104 172.694 20.9688C172.506 19.4062 172.475 17.75 172.6 16C172.85 13.0208 174.027 10.4167 176.131 8.1875C177.36 7.08333 178.715 6.3125 180.194 5.875C181.694 5.4375 183.319 5.28125 185.069 5.40625C186.485 5.96875 187.662 6.70833 188.6 7.625C189.704 9 190.131 10.6146 189.881 12.4688L188.975 14.5312C188.204 15.0938 186.902 15.3438 185.069 15.2812C184.36 14.9688 183.798 14.4688 183.381 13.7812V12.4688L183.569 11.7188C183.069 11.2396 182.444 11.0625 181.694 11.1875C180.59 11.7917 179.85 12.6562 179.475 13.7812C178.787 16.1146 178.475 18.1042 178.537 19.75C178.954 21.25 179.579 22.1771 180.412 22.5312L182.069 22.7188L183.006 21.7812L183.944 19.5312L187.287 19.375L189.35 20.6562L189.537 22.3438C189.537 23.5729 189.1 24.6875 188.225 25.6875C186.204 27.5625 183.662 28.3021 180.6 27.9062ZM196.7 28.0625L195.012 27.3125C194.408 25.3958 194.158 23.1562 194.262 20.5938C194.367 18.2188 194.565 15.6771 194.856 12.9688C195.169 10.2396 195.846 7.88542 196.887 5.90625C198.117 5.53125 199.419 5.40625 200.794 5.53125L202.075 6.46875V11.3125L201.325 16.4375C202.929 16.1458 204.117 15.4896 204.887 14.4688C205.992 11.6771 206.783 8.9375 207.262 6.25C208.012 5.64583 209.2 5.40625 210.825 5.53125L212.325 6.46875C212.7 7.34375 212.825 8.27083 212.7 9.25C212.554 12.7708 211.742 15.5208 210.262 17.5C211.637 18.4583 212.325 19.8646 212.325 21.7188C212.075 23.8229 211.325 25.75 210.075 27.5C208.971 28.1042 207.669 28.2917 206.169 28.0625L204.7 26.5625V23.7812L205.45 21.3438C205.45 20.5938 205.137 20.2188 204.512 20.2188L201.2 20.875C200.929 23.4167 200.356 25.6875 199.481 27.6875C198.794 27.9375 197.867 28.0625 196.7 28.0625Z" fill="black"/>
</svg>
