<svg width="70" height="70" viewBox="0 0 70 70" fill="none" xmlns="http://www.w3.org/2000/svg">
<path d="M35 66C52.1208 66 66 52.1208 66 35C66 17.8792 52.1208 4 35 4C17.8792 4 4 17.8792 4 35C4 52.1208 17.8792 66 35 66Z" fill="#216DFF"/>
<path d="M17.3181 16.5026C19.4654 17.9008 20.8846 19.8398 20.8584 22.4036C20.8409 24.2691 21.6861 25.5938 22.7659 26.8171C23.6059 27.7691 24.4021 28.7368 25.1161 29.7816C25.5554 30.4238 25.6376 31.1501 25.6674 31.9043C25.7269 33.4216 26.6404 34.2861 28.1769 34.3228C28.5706 34.3316 28.9661 34.3281 29.3599 34.3263C30.5674 34.3228 30.911 33.8188 30.3906 32.8143C29.6591 31.4003 30.3889 28.3518 31.7486 27.5171C32.7776 26.8853 33.9746 27.3298 35.0929 27.2283C36.3984 27.1111 37.3014 27.5731 37.5971 28.9608C37.6671 29.2881 37.9471 29.6643 38.3566 29.4998C38.7626 29.3371 39.3909 29.4088 39.4661 28.7508C39.5116 28.3606 39.5431 27.9633 39.5256 27.5713C39.4731 26.4076 39.8056 25.4293 40.7331 24.6681C41.4699 24.0643 41.8479 23.3171 41.9476 22.3056C42.0684 21.0823 42.9784 20.2703 44.1351 19.9938C44.9436 19.8013 45.3654 19.4443 45.5281 18.6796C45.6874 17.9236 46.1599 17.5648 46.9351 17.5928C47.1539 17.6016 47.3761 17.5963 47.5914 17.5666C48.1601 17.4861 48.7691 17.4423 48.7499 16.6268C48.7306 15.8113 48.0971 15.7186 47.5459 15.7483C46.0846 15.8306 44.8946 15.4018 43.9636 14.2381C43.6626 13.8618 43.5419 13.6431 43.7851 13.1181C44.4746 11.6271 44.0354 11.0286 42.3799 10.9883C42.0736 10.9813 41.7639 10.9603 41.4611 10.9883C41.0061 11.0286 40.4111 10.7258 40.1364 11.2456C39.8424 11.7986 40.0839 12.4111 40.4934 12.8153C41.0919 13.4051 41.1759 13.8688 40.4654 14.4078C39.8319 14.8891 40.0699 15.6153 40.0454 16.2471C40.0156 17.0503 39.9211 17.7626 38.9149 17.8518C38.0574 17.9271 37.3049 17.8011 37.1596 16.7511C37.0599 16.0318 36.5331 15.8411 35.9504 15.7641C35.4761 15.7011 34.9879 15.7273 34.5066 15.7221C33.4776 15.7116 32.4259 15.8148 32.4451 14.2503C32.4626 12.7716 33.4566 12.8573 34.4419 12.8468C34.8356 12.8433 35.2329 12.8661 35.6231 12.8241C36.4036 12.7383 37.0739 12.5161 37.1824 11.5571C37.2734 10.7486 37.8211 10.4546 38.5789 10.5158C39.3209 10.5771 39.6184 10.2551 39.5676 9.52008C39.4976 8.50158 40.0681 8.23207 41.0096 8.09907C44.2384 7.63882 46.6691 9.14907 48.8111 11.2298C50.2636 12.6386 51.8754 13.8076 53.6044 14.7858C55.0481 15.6031 56.7054 15.2041 58.2874 15.1218C54.8504 11.0986 50.3914 7.97483 45.3094 6.15833C42.2714 6.70083 39.2019 6.41732 36.1534 6.36307C34.7884 6.33857 33.8171 6.88108 33.1731 7.76833C32.6744 8.45783 31.8781 9.03708 31.7801 10.0486C31.6996 10.8816 30.9996 10.9603 30.2891 10.9621C29.5629 10.9638 28.9224 10.8343 28.8244 10.0066C28.7001 8.96357 28.0666 8.76408 27.1759 8.78508C25.9964 8.81308 24.8134 8.80782 23.6339 8.77807C22.6626 8.75532 21.8524 8.47708 21.6144 7.44983C17.7784 9.31708 14.3956 11.9631 11.6621 15.1796C11.6499 15.2321 11.6289 15.2793 11.6201 15.3353C13.5854 15.4001 15.5646 15.3616 17.3181 16.5026Z" fill="#7BD58F"/>
<path d="M53.7621 44.1299C52.6578 44.0179 51.4573 42.8121 51.3786 41.7341C51.1633 38.8326 49.2576 37.0371 46.3893 37.0336C44.6358 37.0336 42.7913 36.6854 41.1498 37.1124C38.4461 37.8141 38.5178 34.6904 36.7066 34.3124C36.3986 34.2476 36.1501 33.9046 36.0993 33.5144C36.0713 33.3009 36.0521 33.0559 35.9366 32.8914C35.5673 32.3664 35.0441 32.0829 34.4876 32.5379C33.7701 33.1259 33.8261 34.2284 33.0876 34.8479C32.9756 34.9406 33.1768 35.1594 33.3448 35.2311C34.8761 35.8839 35.5691 37.6724 37.3611 38.0749C37.9736 38.2131 38.6071 38.8291 39.2528 39.1914C39.6833 39.4329 39.8076 39.7094 39.4156 40.1171C37.8073 41.7849 37.4521 43.8149 37.6673 46.0391C37.7846 47.2449 38.6928 48.2546 39.9353 48.3631C41.0396 48.4594 42.3696 49.6564 42.3871 50.6854C42.4256 52.7889 42.3888 54.8924 42.3923 56.9976C42.3923 57.7046 42.1106 58.1719 41.3861 58.3189C40.8138 58.4361 40.2346 58.5429 40.2941 59.3444C40.3571 60.1686 41.0798 60.1214 41.5681 60.1984C43.3163 60.4784 44.6463 59.4406 45.8398 58.4484C48.8376 55.9546 51.5361 53.1301 54.2223 50.3091C55.1568 49.3274 56.0808 48.2004 56.1088 46.6831C56.1403 45.3321 55.1708 44.2716 53.7638 44.1281L53.7621 44.1299Z" fill="#7BD58F"/>
</svg>
