<svg width="64" height="64" viewBox="0 0 64 64" fill="none" xmlns="http://www.w3.org/2000/svg">
<circle cx="32" cy="32" r="32" fill="#84CAA6"/>
<path d="M32.001 21.8936C36.9109 21.8936 41.0067 23.9552 41.9491 26.6937C42.6382 25.904 43.0376 25.0299 43.0376 24.1126C43.0376 20.8049 37.9832 18.0109 32.0002 18.0109C26.0173 18.0109 20.9629 20.8049 20.9629 24.1126C20.9629 25.0299 21.3622 25.904 22.0514 26.6937C22.9937 23.9552 27.0895 21.8936 31.9994 21.8936H32.001Z" fill="#D0D5DA"/>
<path d="M32.0008 40.6339C28.9805 40.6339 26.2281 39.4888 24.1161 37.6121C24.0844 37.7828 24.0649 37.9559 24.0649 38.1316C24.0649 40.7234 27.6185 42.8247 32.0016 42.8247C36.3847 42.8247 39.9383 40.7234 39.9383 38.1316C39.9383 37.9559 39.9188 37.7828 39.8872 37.6121C37.7752 39.4896 35.0227 40.6339 32.0024 40.6339H32.0008Z" fill="#AFB7C0"/>
<path d="M32.0008 21.8937C27.0909 21.8937 22.9951 23.9552 22.0527 26.6937C23.849 28.7519 27.6769 30.2152 32.0008 30.2152C36.3247 30.2152 40.1526 28.7519 41.9488 26.6937C41.0065 23.9552 36.9107 21.8937 32.0008 21.8937Z" fill="#23B169"/>
<path d="M24.116 37.6113C26.228 39.4888 28.9805 40.6331 32.0007 40.6331C35.021 40.6331 37.7735 39.488 39.8855 37.6113C41.4585 36.2134 42.6688 34.4071 43.362 32.3505C43.7848 31.0977 44.0251 29.7579 44.0251 28.3575V24.2883C44.0251 24.2883 44.0154 24.314 44.0056 24.3397C43.918 25.9687 42.918 27.461 41.2792 28.6351C40.7889 28.9864 40.2426 29.3088 39.6493 29.5988C37.5706 30.613 34.9058 31.222 32.0007 31.222C29.0957 31.222 26.4301 30.613 24.3514 29.5988C23.7572 29.3088 23.2118 28.9856 22.7215 28.6351C21.0827 27.461 20.0827 25.9687 19.9951 24.3397C19.9853 24.314 19.9756 24.2883 19.9756 24.2883V28.3575C19.9756 29.757 20.2158 31.0969 20.6387 32.3505C21.3319 34.4063 22.5421 36.2126 24.1152 37.6113H24.116Z" fill="#D0D5DA"/>
<path d="M43.362 32.3505C42.6688 34.4062 41.4586 36.2125 39.8856 37.6112C39.9172 37.7819 39.9367 37.9551 39.9367 38.1307C39.9367 40.7226 36.3831 42.8239 32 42.8239C27.6169 42.8239 24.0633 40.7226 24.0633 38.1307C24.0633 37.9551 24.0828 37.7819 24.1144 37.6112C22.5414 36.2134 21.3312 34.407 20.638 32.3505C18.3758 33.9032 17 35.92 17 38.1307C17 43.0294 23.7159 47 32 47C40.2841 47 47 43.0294 47 38.1307C47 35.92 45.6242 33.9032 43.362 32.3505Z" fill="#E5E8EB"/>
<path d="M43.4855 21.9964C43.2501 21.5573 42.9417 21.1264 42.5764 20.7204C41.8378 19.9166 40.8394 19.2041 39.6462 18.624C37.5683 17.6132 34.906 17 32.0001 17C29.6219 17 27.406 17.4143 25.5391 18.1269C25.1251 18.276 24.7274 18.4417 24.354 18.624C23.1608 19.2041 22.1706 19.9166 21.4238 20.7204C21.0585 21.1264 20.7501 21.5573 20.5147 21.9964C20.1657 22.6676 19.979 23.3802 19.979 24.1093C19.979 24.1922 19.9952 24.2668 19.9952 24.3413C20.0845 25.9654 21.0829 27.4651 22.7225 28.6334C23.2095 28.9897 23.7615 29.3129 24.354 29.6029C26.4319 30.6138 29.0943 31.2269 32.0001 31.2269C34.906 31.2269 37.5683 30.6138 39.6462 29.6029C40.2469 29.3129 40.7907 28.9897 41.2777 28.6334C42.9173 27.4651 43.9157 25.9654 44.005 24.3413C44.0131 24.2668 44.0293 24.1922 44.0293 24.1093C44.0293 23.3802 43.8345 22.6676 43.4855 21.9964ZM41.9514 26.6945C40.1495 28.7494 36.3264 30.216 32.0001 30.216C27.6738 30.216 23.8508 28.7494 22.0488 26.6945C21.367 25.9074 20.9611 25.0291 20.9611 24.1093C20.9611 20.8032 26.018 18.0109 32.0001 18.0109C37.9823 18.0109 43.0391 20.8032 43.0391 24.1093C43.0391 25.0291 42.6413 25.9074 41.9514 26.6945Z" fill="#E5E8EB"/>
</svg>
