<svg width="53" height="53" viewBox="0 0 53 53" fill="none" xmlns="http://www.w3.org/2000/svg">
<g clip-path="url(#clip0_170_5223)">
<path d="M17.9246 33.6855C25.4905 33.6855 31.6238 27.5521 31.6238 19.9863C31.6238 12.4204 25.4905 6.28711 17.9246 6.28711C10.3588 6.28711 4.22543 12.4204 4.22543 19.9863C4.22543 27.5521 10.3588 33.6855 17.9246 33.6855Z" fill="#C8D8F7"/>
<path d="M35.5907 47.1814C41.4398 47.1814 46.1814 42.4398 46.1814 36.5907C46.1814 30.7416 41.4398 26 35.5907 26C29.7416 26 25 30.7416 25 36.5907C25 42.4398 29.7416 47.1814 35.5907 47.1814Z" fill="#D9E3F7"/>
<path d="M30.4127 25.5765C25.2002 25.0915 20.4037 28.5114 19.1648 33.6073C24.0766 33.1621 28.3947 30.0828 30.4127 25.5765Z" fill="#9DBCF7"/>
<path d="M40.3878 22.7757C43.9157 22.7757 46.7757 19.9157 46.7757 16.3878C46.7757 12.8599 43.9157 10 40.3878 10C36.8599 10 34 12.8599 34 16.3878C34 19.9157 36.8599 22.7757 40.3878 22.7757Z" fill="#E6EBF7"/>
<g clip-path="url(#clip1_170_5223)">
<path d="M17.5709 27.297C17.0461 26.9517 16.34 27.0972 15.9948 27.6219L14.7583 28.9523L14.4472 27.4433L13.7107 23.1164V23.1154C13.6186 22.575 13.1159 22.2105 12.5875 22.3007C12.059 22.3909 11.7055 22.9009 11.7976 23.4413L12.431 27.1644L11.9504 27.2638L10.9184 23.016C10.7895 22.4839 10.262 22.1552 9.7418 22.2813C9.22072 22.4075 8.90402 22.9414 9.03291 23.4745L10.0548 27.6809L9.66079 27.8751L8.27523 24.385C8.07729 23.886 7.51295 23.642 7.01488 23.84C6.51682 24.0379 6.27377 24.6023 6.47171 25.1012L7.91434 28.735L7.43193 28.9725L6.22222 26.4537C5.98469 25.9584 5.40009 25.7448 4.91675 25.9768C4.43342 26.2088 4.23548 26.798 4.47301 27.2933L6.74882 32.0318L6.7571 32.0263C7.53688 34.2137 9.82374 35.5514 12.1631 35.069C13.4428 34.8047 14.4941 34.0471 15.1597 33.0353L17.8977 28.8749C18.2429 28.3502 18.0975 27.644 17.5727 27.2988L17.5709 27.297Z" fill="#FFCBA7"/>
<path d="M28.2355 41.818L28.1766 42.1604C27.998 43.1961 27.0138 43.8912 25.9772 43.7126C24.9415 43.534 24.2464 42.5489 24.425 41.5132L24.4839 41.1717C24.0236 41.1348 23.5596 41.1035 23.0818 41.0943L22.4475 41.0354C16.9531 40.2032 16.0979 35.1756 15.9349 33.5451C15.91 33.2966 15.7001 33.1133 15.4506 33.1198L7.2082 33.3168C6.9403 33.3233 6.72303 33.546 6.74052 33.813C7.01211 37.85 9.60922 44.5375 16.0555 47.78C16.1862 47.8463 16.2719 47.9779 16.2728 48.1243L16.316 53.1169C16.3179 53.3351 16.4946 53.51 16.7128 53.51H38.2759C38.2759 48.035 34.4461 43.5165 28.2337 41.8189L28.2355 41.818Z" fill="#216DFF"/>
<path d="M34.3108 37.8085C33.1848 39.381 31.5084 40.4821 29.6211 40.9065L32.9335 41.6016C33.6571 41.7535 34.3844 41.3567 34.6468 40.6653L35.7433 37.7837C35.2894 37.8896 34.8052 37.9126 34.3108 37.8085Z" fill="#333333"/>
<path d="M20.1514 34.835H20.1422C19.5033 34.6969 18.9481 34.3876 18.5201 33.9714L18.6489 37.4395C18.6747 38.129 19.1663 38.7127 19.8421 38.8545L23.1794 39.5551C21.629 38.4098 20.5445 36.7315 20.1514 34.835Z" fill="#333333"/>
<path d="M20.3834 30.833L26.6953 26.1866C26.6953 26.1866 31.8545 32.4727 36.0066 33.0609C36.0977 33.0738 36.2091 33.0646 36.3205 33.0416C36.6133 32.9486 36.8895 32.7341 37.0856 32.8096C37.0939 32.8124 37.104 32.8096 37.1123 32.8133C38.3073 27.5095 34.6422 22.2048 29.1 21.6488C24.8375 21.2216 20.7876 23.9089 19.518 28.0002C19.3891 28.4163 19.2906 28.8334 19.2216 29.2495C19.2216 29.2495 19.2557 29.2523 19.3026 29.2615C19.5088 29.3011 20.0851 29.5257 20.3834 30.833Z" fill="#333333"/>
<path d="M37.0865 32.8096C36.8904 32.7341 36.6142 32.9486 36.3214 33.0416C36.2091 33.0637 36.0987 33.0738 36.0075 33.0609C31.8554 32.4726 26.6962 26.1865 26.6962 26.1865L20.3843 30.833C20.0851 29.5266 19.5088 29.302 19.3035 29.2614C18.486 29.6481 17.8581 30.3634 17.6666 31.2813C17.454 32.283 17.8093 33.2763 18.521 33.9714C18.9481 34.3885 19.5042 34.6978 20.1431 34.835H20.1523C20.5464 36.7315 21.63 38.4098 23.1803 39.5541C23.6241 39.8819 24.1009 40.1728 24.6174 40.4048L24.4885 41.1689L24.4241 41.5096C24.2492 42.5499 24.9396 43.535 25.98 43.7099C27.0111 43.894 27.9961 43.1943 28.1803 42.1632L28.2355 41.8226L28.3644 41.0953C28.7925 41.0704 29.2105 40.9995 29.622 40.9066C31.5093 40.4821 33.1858 39.3811 34.3117 37.8086C34.8061 37.9127 35.2903 37.8906 35.7442 37.7847C36.8619 37.5232 37.7705 36.6928 38.0127 35.554C38.2336 34.5238 37.8414 33.5056 37.0874 32.8105L37.0865 32.8096Z" fill="#FFCBA7"/>
<path d="M26.6093 32.5363C26.724 31.9899 26.4479 31.4695 25.9926 31.3739C25.5372 31.2783 25.0752 31.6438 24.9605 32.1901C24.8458 32.7365 25.1219 33.2569 25.5772 33.3525C26.0325 33.4481 26.4946 33.0827 26.6093 32.5363Z" fill="black"/>
<path d="M30.9635 33.4506C31.0782 32.9042 30.8021 32.3838 30.3468 32.2882C29.8915 32.1927 29.4294 32.5581 29.3147 33.1045C29.2 33.6508 29.4761 34.1712 29.9314 34.2668C30.3867 34.3624 30.8488 33.997 30.9635 33.4506Z" fill="black"/>
<path d="M28.1692 36.9378C28.3543 36.9764 28.4491 37.1826 28.3626 37.3511C28.0873 37.886 27.4797 38.1944 26.8619 38.0646C26.2442 37.9348 25.8124 37.4091 25.7746 36.8079C25.7627 36.6192 25.9321 36.4682 26.1171 36.5078L28.1683 36.9387L28.1692 36.9378Z" fill="#5C2F17"/>
</g>
</g>
<defs>
<clipPath id="clip0_170_5223">
<rect width="53" height="53" fill="white"/>
</clipPath>
<clipPath id="clip1_170_5223">
<rect width="36.8254" height="36.8254" fill="white" transform="translate(3 19)"/>
</clipPath>
</defs>
</svg>
