<svg width="233" height="42" viewBox="0 0 233 42" fill="none" xmlns="http://www.w3.org/2000/svg">
<path d="M54.6875 28.0312L53.2812 27.625C52.5104 25.6667 52.1771 23.3229 52.2812 20.5938C52.4688 18.3438 52.7917 15.9583 53.25 13.4375C53.7292 10.8958 54.5208 8.57292 55.625 6.46875C57.5417 5.63542 59.9583 5.32292 62.875 5.53125C65.2292 5.40625 67.3438 5.89583 69.2188 7L69.3438 10.1875L68.2812 11.6562H65.6875C63.9375 11.2812 62.1354 11.0938 60.2812 11.0938C59.6562 12.7188 59.3021 14.5208 59.2188 16.5C62.0312 16.375 63.9896 16.3438 65.0938 16.4062C66.1979 16.4688 66.9479 16.6875 67.3438 17.0625L67.5312 19.6562C66.6354 20.3021 63.7396 20.5625 58.8438 20.4375L58.5312 22.8125C59.9479 23.0625 61.5833 23.125 63.4375 23C65.2917 22.875 66.9688 23.0625 68.4688 23.5625C69.0312 24.2083 69.2812 25.2083 69.2188 26.5625L68.4062 27.75L66.5938 28.0312H54.6875ZM81.3813 27.9062C79.0271 27.7812 76.975 26.8542 75.225 25.125C74.2458 23.8958 73.6625 22.5104 73.475 20.9688C73.2875 19.4062 73.2563 17.75 73.3813 16C73.6313 13.0208 74.8083 10.4167 76.9125 8.1875C78.1417 7.08333 79.4958 6.3125 80.975 5.875C82.475 5.4375 84.1 5.28125 85.85 5.40625C87.2667 5.96875 88.4438 6.70833 89.3813 7.625C90.4854 9 90.9125 10.6146 90.6625 12.4688L89.7563 14.5312C88.9854 15.0938 87.6833 15.3438 85.85 15.2812C85.1417 14.9688 84.5792 14.4688 84.1625 13.7812V12.4688L84.35 11.7188C83.85 11.2396 83.225 11.0625 82.475 11.1875C81.3708 11.7917 80.6313 12.6562 80.2563 13.7812C79.5688 16.1146 79.2563 18.1042 79.3188 19.75C79.7354 21.25 80.3604 22.1771 81.1938 22.5312L82.85 22.7188L83.7875 21.7812L84.725 19.5312L88.0688 19.375L90.1313 20.6562L90.3188 22.3438C90.3188 23.5729 89.8813 24.6875 89.0063 25.6875C86.9854 27.5625 84.4438 28.3021 81.3813 27.9062ZM103.075 27.9688C100.721 27.8438 98.6792 26.9167 96.95 25.1875C95.95 23.9583 95.3563 22.5729 95.1688 21.0312C94.9813 19.4688 94.95 17.8125 95.075 16.0625C95.325 13.0833 96.5021 10.4792 98.6063 8.25C100.856 6.14583 103.585 5.21875 106.794 5.46875C108.419 5.84375 109.783 6.70833 110.888 8.0625C111.638 9.4375 112.138 10.9375 112.388 12.5625C112.638 14.1667 112.7 15.8333 112.575 17.5625C112.325 19.1667 111.919 20.7188 111.356 22.2188C110.794 23.6979 110.023 25.125 109.044 26.5C107.294 27.6042 105.304 28.0938 103.075 27.9688ZM104.45 22.5C105.7 20.8958 106.294 18.625 106.231 15.6875C106.356 14.0833 105.929 12.6667 104.95 11.4375L104.2 11.25C103.075 11.8542 102.335 12.7188 101.981 13.8438C101.252 15.8854 100.877 17.8021 100.856 19.5938C101.231 21.4896 102.158 22.5521 103.638 22.7812L104.45 22.5ZM121.706 27.9688L120.238 26.5C119.842 25.625 119.654 24.6771 119.675 23.6562C120.113 21.7812 120.456 19.7917 120.706 17.6875C120.956 15.5833 121.081 13.4792 121.081 11.375C119.602 11.5 118.238 11.1875 116.988 10.4375C116.613 9.5625 116.488 8.63542 116.613 7.65625L117.363 6.15625L119.05 5.40625H129.456C130.519 5.63542 131.206 6.01042 131.519 6.53125L131.863 9.875L130.581 11.1875L127.956 11.375C127.727 14.0417 127.56 16.8125 127.456 19.6875C127.352 22.5625 126.738 25.1458 125.613 27.4375C124.508 28.0417 123.206 28.2188 121.706 27.9688ZM138.056 28.0312C137.369 27.9062 136.817 27.6667 136.4 27.3125C135.817 25.8542 135.567 23.6146 135.65 20.5938C135.921 18.1146 136.265 15.6667 136.681 13.25C137.119 10.8333 137.89 8.57292 138.994 6.46875C141.723 5.46875 144.765 5.15625 148.119 5.53125C149.577 6.17708 150.754 6.92708 151.65 7.78125C152.588 9.28125 153.025 11.0729 152.963 13.1562C152.838 15.7604 151.66 18 149.431 19.875C151.16 21.9792 152.088 24.4167 152.213 27.1875C151.817 27.9583 150.327 28.2396 147.744 28.0312L146.056 27.3125C145.577 24.9583 144.713 22.7188 143.463 20.5938L142.338 20.4062C142.338 23.0104 141.91 25.5 141.056 27.875C140.181 28.0208 139.181 28.0729 138.056 28.0312ZM145.338 16.125C146.317 15.1458 146.806 13.9688 146.806 12.5938C146.681 12.0104 146.338 11.5208 145.775 11.125H143.65C143.025 12.7292 142.65 14.5 142.525 16.4375C143.213 16.4583 143.963 16.4167 144.775 16.3125L145.338 16.125ZM158.938 28.0625C158.229 27.9583 157.677 27.7083 157.281 27.3125L156.719 25.0625C157.01 22.2917 157.417 19.2188 157.938 15.8438C158.479 12.4479 159.438 9.32292 160.812 6.46875C163.042 5.46875 165.583 5.15625 168.438 5.53125L170.844 6.65625C172.219 9.13542 173.042 11.8646 173.312 14.8438C173.604 17.8021 173.698 20.9167 173.594 24.1875C173.448 25.5625 173.135 26.6875 172.656 27.5625L168.25 28.0625L167.312 27.5L167.125 25.25L168.062 20.7812C166.688 20.4062 165.219 20.3125 163.656 20.5C163.177 23.0208 162.677 25.4375 162.156 27.75L158.938 28.0625ZM167.688 15.4062L166.562 11.6875L165.469 11.5C164.927 12.8333 164.573 14.4583 164.406 16.375C165.219 16.4583 166.302 16.4792 167.656 16.4375L167.688 15.4062ZM185.6 27.9062C183.246 27.7812 181.194 26.8542 179.444 25.125C178.465 23.8958 177.881 22.5104 177.694 20.9688C177.506 19.4062 177.475 17.75 177.6 16C177.85 13.0208 179.027 10.4167 181.131 8.1875C182.36 7.08333 183.715 6.3125 185.194 5.875C186.694 5.4375 188.319 5.28125 190.069 5.40625C191.485 5.96875 192.662 6.70833 193.6 7.625C194.704 9 195.131 10.6146 194.881 12.4688L193.975 14.5312C193.204 15.0938 191.902 15.3438 190.069 15.2812C189.36 14.9688 188.798 14.4688 188.381 13.7812V12.4688L188.569 11.7188C188.069 11.2396 187.444 11.0625 186.694 11.1875C185.59 11.7917 184.85 12.6562 184.475 13.7812C183.787 16.1146 183.475 18.1042 183.537 19.75C183.954 21.25 184.579 22.1771 185.412 22.5312L187.069 22.7188L188.006 21.7812L188.944 19.5312L192.287 19.375L194.35 20.6562L194.537 22.3438C194.537 23.5729 194.1 24.6875 193.225 25.6875C191.204 27.5625 188.662 28.3021 185.6 27.9062ZM201.7 28.0625L200.012 27.3125C199.408 25.3958 199.158 23.1562 199.262 20.5938C199.367 18.2188 199.565 15.6771 199.856 12.9688C200.169 10.2396 200.846 7.88542 201.887 5.90625C203.117 5.53125 204.419 5.40625 205.794 5.53125L207.075 6.46875V11.3125L206.325 16.4375C207.929 16.1458 209.117 15.4896 209.887 14.4688C210.992 11.6771 211.783 8.9375 212.262 6.25C213.012 5.64583 214.2 5.40625 215.825 5.53125L217.325 6.46875C217.7 7.34375 217.825 8.27083 217.7 9.25C217.554 12.7708 216.742 15.5208 215.262 17.5C216.637 18.4583 217.325 19.8646 217.325 21.7188C217.075 23.8229 216.325 25.75 215.075 27.5C213.971 28.1042 212.669 28.2917 211.169 28.0625L209.7 26.5625V23.7812L210.45 21.3438C210.45 20.5938 210.137 20.2188 209.512 20.2188L206.2 20.875C205.929 23.4167 205.356 25.6875 204.481 27.6875C203.794 27.9375 202.867 28.0625 201.7 28.0625Z" fill="black"/>
<path d="M16.239 21.8209H13.1943C12.3535 21.8209 11.6719 22.4371 11.6719 23.1971V27.9105H17.7614V23.1971C17.7614 22.4371 17.0798 21.8209 16.239 21.8209Z" fill="#6B7683"/>
<path d="M12.173 27.9105V23.0263C12.173 22.2388 12.8115 21.6003 13.5991 21.6003H16.4513C17.2389 21.6003 17.8774 22.2388 17.8774 23.0263V27.9105H22.3618C21.6801 27.8987 21.3044 27.1082 21.7331 26.5737L23.9448 23.8149H23.324C22.7874 23.8149 22.4893 23.1941 22.8247 22.7753L24.9688 20.1008H24.3264C23.9272 20.1008 23.7055 19.6389 23.9556 19.328L27.4032 15.0294L15.9119 5.89176C15.392 5.47887 14.6564 5.47887 14.1366 5.89176L1.01514 16.3259V27.9105H12.173Z" fill="#D0D5DA"/>
<path d="M15.5852 5.93691L26.823 14.9578L26.9918 14.7458C27.1779 14.5115 27.5309 14.5115 27.717 14.7458L28.4181 15.6279V11.9651C28.4181 11.1072 28.0306 10.2949 27.3649 9.76042L15.5852 0.305717C15.0768 -0.101906 14.3574 -0.101906 13.849 0.305717L2.06832 9.76236C1.40265 10.2968 1.01514 11.1072 1.01514 11.966V16.2388L13.8481 5.93787C14.3565 5.53025 15.0758 5.53025 15.5842 5.93787L15.5852 5.93691Z" fill="#216DFF"/>
<path d="M33.0393 27.9123H22.1492C22.1444 27.9123 22.1395 27.9105 22.1347 27.9105H0.971373C0.435175 27.9105 0 28.3166 0 28.8171V30.5561C0 31.0565 0.435175 31.4627 0.971373 31.4627H33.0286C33.5648 31.4627 34 31.0565 34 30.5561V28.8171C34 28.3194 33.5707 27.9177 33.0393 27.9123Z" fill="#23B169"/>
<path d="M24.1003 23.3433L21.9946 26.4183C21.5856 27.0151 21.9442 27.8951 22.5932 27.9082C22.5979 27.9082 22.6025 27.9104 22.6072 27.9104H33.2142C33.8725 27.9104 34.2377 27.0195 33.8259 26.4183L31.7201 23.3433H24.1013H24.1003Z" fill="#0A9F60"/>
<path d="M24.6422 19.791L22.4715 22.349C22.1319 22.7495 22.4338 23.3433 22.9769 23.3433H32.336C32.8792 23.3433 33.1811 22.7495 32.8415 22.349L30.6708 19.791H24.6422Z" fill="#23B169"/>
<path d="M27.7714 14.8817C27.5828 14.6613 27.2251 14.6613 27.0364 14.8817L26.8653 15.0812L23.4481 19.0733C23.2002 19.3621 23.4199 19.7911 23.8156 19.7911H30.9904C31.386 19.7911 31.6058 19.3621 31.3578 19.0733L28.4811 15.7115L27.7714 14.8817Z" fill="#68C76F"/>
</svg>
