<svg width="60" height="60" viewBox="0 0 60 60" fill="none" xmlns="http://www.w3.org/2000/svg">
<g clip-path="url(#clip0_17_1165)">
<path d="M55.035 34.8795C51.198 42.993 36.9435 42.006 30.9135 41.6775C24.8835 41.349 7.56004 37.401 4.70854 31.0425C4.21654 29.946 3.93004 28.8615 3.81454 27.807H3.80554L4.42804 36.3555C4.68454 39.5355 6.39304 42.4635 9.12754 44.106C15.4815 47.925 26.382 50.214 30.912 50.46C36.429 50.7615 48.828 51.612 53.838 45.543C54.618 44.598 55.053 43.4145 55.1535 42.1935C55.3725 39.5235 55.827 33.963 56.0025 31.824C55.809 32.871 55.5 33.8955 55.035 34.8795Z" fill="#FF8293"/>
<path d="M30.4875 37.344C34.6605 37.572 47.565 38.4195 50.187 32.7885C52.9995 26.7495 50.541 19.065 46.965 15.7155C43.089 12.0855 36.8625 13.5195 31.779 16.9335C27.7845 19.6155 21.5895 20.238 19.1175 20.3805C18.0285 20.4435 14.1405 21.1245 13.068 21.318C8.21702 22.1925 7.09502 25.686 8.77202 29.4285C10.7445 33.8295 26.316 37.1145 30.489 37.341L30.4875 37.344ZM39.9405 19.149C42.6435 19.149 44.8335 20.85 44.8335 22.9485C44.8335 25.047 42.6435 26.7495 39.9405 26.7495C37.2375 26.7495 35.0475 25.0485 35.0475 22.9485C35.0475 20.8485 37.2375 19.149 39.9405 19.149Z" fill="#ED4E61"/>
<path d="M30.9135 41.6775C36.9435 42.006 51.1965 42.993 55.035 34.8795C55.5 33.8955 55.812 32.8695 56.004 31.824C57.4035 24.243 52.323 15.5175 50.2995 12.723C47.997 9.54301 40.122 7.25101 32.7765 12.1845C27.0045 16.0605 18.051 16.959 14.4795 17.166C12.906 17.2575 11.3325 17.5305 9.88952 18.162C5.68652 19.998 3.36002 23.658 3.81602 27.807C3.93152 28.8615 4.21802 29.946 4.71002 31.0425C7.56002 37.4025 24.8835 41.349 30.915 41.6775H30.9135ZM13.0665 21.3195C14.139 21.126 18.027 20.445 19.116 20.382C21.588 20.2395 27.783 19.617 31.7775 16.935C36.861 13.521 43.0875 12.0855 46.9635 15.717C50.5395 19.0665 52.998 26.751 50.1855 32.79C47.5635 38.4195 34.659 37.572 30.486 37.3455C26.313 37.1175 10.7415 33.8325 8.76902 29.433C7.09052 25.6905 8.21402 22.197 13.065 21.3225L13.0665 21.3195Z" fill="#FFA7B3"/>
<path d="M39.9405 26.7495C42.6435 26.7495 44.8335 25.0485 44.8335 22.9485C44.8335 20.8485 42.6435 19.149 39.9405 19.149C37.2375 19.149 35.0475 20.85 35.0475 22.9485C35.0475 25.047 37.2375 26.7495 39.9405 26.7495Z" fill="#FFA7B3"/>
</g>
<defs>
<clipPath id="clip0_17_1165">
<rect width="60" height="60" fill="white"/>
</clipPath>
</defs>
</svg>
