<svg width="64" height="64" viewBox="0 0 64 64" fill="none" xmlns="http://www.w3.org/2000/svg">
<circle cx="32" cy="32" r="32" fill="#FFB36C"/>
<path d="M37.2971 47H25.9495C24.1061 47 22.5294 45.6768 22.2107 43.8624L18.0123 19.944C17.9258 19.4512 18.3054 19 18.8059 19H44.1941C44.6946 19 45.0742 19.4512 44.9877 19.944L41.0351 43.8624C40.7164 45.6768 39.1405 47 37.2971 47Z" fill="#C8E1FF"/>
<path d="M31.8483 25.1627C28.0331 26.6895 25.0433 26.6352 22 25.7309L25.1143 42.9979C25.2181 43.5785 25.7346 44 26.3414 44H37.6538C38.2606 44 38.7771 43.5793 38.8769 43.0227L42 24.6325C38.7236 23.6956 35.4999 23.7414 31.8483 25.1627Z" fill="white"/>
</svg>
