<svg width="64" height="64" viewBox="0 0 64 64" fill="none" xmlns="http://www.w3.org/2000/svg">
<circle cx="32" cy="32" r="32" fill="#FFA7A7"/>
<path d="M44.4491 18.7632C46.2988 20.4566 46.4258 23.332 44.7325 25.1818L26.3158 45.2997L19.6139 39.1646L38.0306 19.0466C39.7239 17.1969 42.5994 17.0699 44.4491 18.7632Z" fill="#D0D6DE"/>
<path d="M41.8646 21.5862C42.4739 22.1439 42.5157 23.0909 41.9579 23.7001L35.3147 30.9571L33.1081 28.937L39.7519 21.6795C40.3096 21.0702 41.2566 21.0284 41.8659 21.5861L41.8646 21.5862Z" fill="white"/>
<path d="M36.8584 27.0549C37.4676 27.6126 37.5094 28.5596 36.9517 29.1688L28.7753 38.1006L26.5686 36.0806L34.7451 27.1488C35.3028 26.5395 36.2491 26.4971 36.8584 27.0549Z" fill="#E32939"/>
<path d="M26.297 47.4284C31.1778 47.4284 35.1345 43.4717 35.1345 38.5909C35.1345 33.71 31.1778 29.7534 26.297 29.7534C21.4162 29.7534 17.4595 33.71 17.4595 38.5909C17.4595 43.4717 21.4162 47.4284 26.297 47.4284Z" fill="#D0D6DE"/>
<path d="M26.2971 43.826C29.1884 43.826 31.5323 41.4821 31.5323 38.5908C31.5323 35.6996 29.1884 33.3557 26.2971 33.3557C23.4059 33.3557 21.062 35.6996 21.062 38.5908C21.062 41.4821 23.4059 43.826 26.2971 43.826Z" fill="#E32939"/>
</svg>
