<svg width="69" height="63" viewBox="0 0 69 63" fill="none" xmlns="http://www.w3.org/2000/svg">
<path d="M59.5093 6.77382C63.0986 9.82178 63.345 14.9976 60.0592 18.3272L24.3231 54.5395L11.3186 43.4963L47.0547 7.28391C50.3404 3.95439 55.9201 3.72587 59.5093 6.77382Z" fill="#D0D6DE"/>
<path d="M54.4942 11.855C55.6765 12.859 55.7576 14.5635 54.6753 15.6602L41.7846 28.7227L37.5028 25.0866L50.3947 12.0229C51.4769 10.9263 53.3144 10.851 54.4966 11.8549L54.4942 11.855Z" fill="#F0F3F6"/>
<path d="M44.7801 21.6988C45.9623 22.7027 46.0434 24.4072 44.9612 25.5039L29.0954 41.5811L24.8136 37.9451L40.6793 21.8678C41.7616 20.7712 43.5978 20.6949 44.7801 21.6988Z" fill="#E32939"/>
<path d="M24.2873 58.371C33.7582 58.371 41.4358 51.249 41.4358 42.4635C41.4358 33.6781 33.7582 26.556 24.2873 26.556C14.8164 26.556 7.13879 33.6781 7.13879 42.4635C7.13879 51.249 14.8164 58.371 24.2873 58.371Z" fill="#D0D6DE"/>
<path d="M24.2875 51.8869C29.8978 51.8869 34.4459 47.6679 34.4459 42.4636C34.4459 37.2593 29.8978 33.0404 24.2875 33.0404C18.6772 33.0404 14.1292 37.2593 14.1292 42.4636C14.1292 47.6679 18.6772 51.8869 24.2875 51.8869Z" fill="#E32939"/>
</svg>
