<svg width="22" height="22" viewBox="0 0 22 22" fill="none" xmlns="http://www.w3.org/2000/svg">
<circle cx="11" cy="11" r="10" fill="white" stroke="#216DFF" stroke-width="2"/>
<path d="M16.7251 7.25257C16.6457 7.17254 16.5513 7.10902 16.4472 7.06567C16.3432 7.02232 16.2316 7 16.1189 7C16.0062 7 15.8946 7.02232 15.7905 7.06567C15.6865 7.10902 15.592 7.17254 15.5126 7.25257L9.15139 13.6224L6.47882 10.9412C6.3964 10.8616 6.29911 10.799 6.1925 10.757C6.08589 10.715 5.97205 10.6944 5.85748 10.6964C5.74291 10.6984 5.62985 10.7229 5.52476 10.7686C5.41967 10.8142 5.3246 10.8802 5.24499 10.9626C5.16538 11.045 5.10278 11.1423 5.06077 11.2489C5.01875 11.3555 4.99815 11.4693 5.00013 11.5839C5.00211 11.6985 5.02664 11.8115 5.07232 11.9166C5.11799 12.0217 5.18392 12.1168 5.26634 12.1964L8.54515 15.4752C8.62453 15.5553 8.71897 15.6188 8.82302 15.6621C8.92707 15.7055 9.03867 15.7278 9.15139 15.7278C9.26411 15.7278 9.37572 15.7055 9.47977 15.6621C9.58382 15.6188 9.67825 15.5553 9.75763 15.4752L16.7251 8.50774C16.8118 8.42778 16.881 8.33074 16.9283 8.22273C16.9756 8.11472 17 7.99808 17 7.88016C17 7.76224 16.9756 7.64559 16.9283 7.53758C16.881 7.42957 16.8118 7.33253 16.7251 7.25257Z" fill="#216DFF"/>
</svg>
