<svg width="65" height="72" viewBox="0 0 65 72" fill="none" xmlns="http://www.w3.org/2000/svg">
<g filter="url(#filter0_d_7_332)">
<path d="M38.9512 4.81003C38.9512 4.79378 38.935 4.79378 38.9188 4.77753L34.645 8.48253C33.9787 7.39378 32.695 7.02003 31.655 7.68628C30.55 8.40128 30.16 10.01 30.7775 11.2775C31.0375 11.8138 31.4275 12.2038 31.8987 12.415L30.1925 15.4213L30.1762 15.4538L30.1275 15.405L29.5912 16.3638C30.2575 16.2013 30.9237 16.185 31.5575 16.3963C32.4025 16.705 33.1012 17.1113 33.67 17.5825L34.385 16.315C35.7337 16.1688 37.0662 15.6325 38.1712 14.69C41.1125 12.1713 41.47 7.75128 38.9512 4.81003ZM38.675 10.4488C38.3337 10.4488 38.0575 9.96128 38.0575 9.36003C38.0575 8.75878 38.3337 8.25503 38.675 8.25503C39.0162 8.25503 39.3088 8.75878 39.3088 9.36003C39.3088 9.96128 39.0325 10.4488 38.675 10.4488Z" fill="#FFCCA8"/>
<path d="M21.775 34.4175C21.9375 34.9862 21.9863 35.5875 21.8888 36.2212C21.515 38.5125 19.3538 40.0725 17.0625 39.6987C14.7713 39.325 13.2113 37.1637 13.585 34.8725C13.715 34.0762 14.0725 33.3775 14.56 32.8087L14.5438 32.7925L20.8325 24.5375L25.6263 29.3637L21.775 34.4175Z" fill="#FFCCA8"/>
<path d="M50.3912 28.21C50.18 29.5425 49.27 30.5987 48.1 31.0862L44.1675 33.8487C41.9412 35.425 38.8862 35.0675 37.0825 33.02L36.1562 32.0125V23.0262L40.4138 27.6575C40.8525 28.1612 41.6163 28.2587 42.1688 27.8687L42.9162 27.3325C42.9162 27.235 42.9162 27.1212 42.9325 27.0075C43.2575 24.9437 45.2075 23.5462 47.255 23.8712C49.3187 24.2125 50.7162 26.1462 50.3912 28.21Z" fill="#FFCCA8"/>
<path d="M46.7529 52.364L36.1351 35.5469H25.5353V35.4738L16.1753 50.362L23.1628 55.0534V55.0583L29.9748 44.226C30.3648 43.6053 31.2683 43.6053 31.6583 44.226L39.7589 57.057L39.4501 56.5533L46.7513 52.3656L46.7529 52.364Z" fill="#3E5AF4"/>
<path d="M36.1351 35.5469H36.1595V22.7565C36.1595 22.7565 36.1286 19.6073 33.6716 17.5776C33.1045 17.1096 32.409 16.7001 31.5526 16.4044C30.9205 16.185 30.2575 16.1996 29.5847 16.3573C25.4004 17.3404 20.8195 24.5131 20.8195 24.5131L20.8374 24.531L25.6262 29.3573L25.5369 35.4738V35.5469H36.1351Z" fill="#8595AA"/>
<path d="M54.314 55.1639L53.859 54.4212C53.183 53.3179 51.9919 52.637 50.6984 52.6142L46.7529 52.3656L39.4518 56.5532L39.7605 57.057L42.8951 62.1692C43.095 62.4942 43.5191 62.5966 43.8458 62.3967L54.0881 56.1161C54.4131 55.9162 54.5155 55.4905 54.3156 55.1655L54.314 55.1639Z" fill="#4E5968"/>
<path d="M16.1753 50.362L12.6653 55.9358C12.4621 56.2591 12.5596 56.6849 12.8814 56.888L23.049 63.2889C23.3724 63.492 23.7981 63.3945 24.0013 63.0727L24.466 62.335C25.155 61.2397 25.2379 59.8699 24.687 58.6999L23.166 55.0582V55.0534L16.1753 50.362Z" fill="#4E5968"/>
<path d="M30.1844 15.4245L31.8923 12.4199C31.434 12.1989 31.031 11.8186 30.771 11.2807C30.1535 10.0067 30.55 8.39797 31.6583 7.68785C32.6934 7.02322 33.9755 7.39047 34.6434 8.48085L38.9139 4.76935L38.9188 4.7661C38.8375 4.67185 38.7335 4.6036 38.6474 4.51585C38.3971 4.25747 38.1453 4.00235 37.8609 3.78622C37.7406 3.69522 37.6074 3.63022 37.4839 3.54735C37.2076 3.36372 36.9298 3.18497 36.6308 3.0436C36.4764 2.97047 36.3139 2.92335 36.1563 2.8616C35.8735 2.7511 35.5891 2.6471 35.295 2.5756C35.1114 2.5301 34.9261 2.50735 34.7393 2.4781C34.4549 2.4326 34.1705 2.39685 33.8796 2.38547C33.7951 2.38222 33.7139 2.35785 33.6294 2.35785C33.5059 2.35785 33.3905 2.38872 33.2686 2.39522C33.0119 2.40822 32.7568 2.4326 32.5065 2.47322C32.3083 2.50572 32.1149 2.54797 31.9215 2.59672C31.6631 2.66335 31.4096 2.73972 31.1626 2.8356C30.9936 2.9006 30.8311 2.97047 30.6703 3.04685C30.4119 3.16872 30.1616 3.3036 29.9211 3.45635C29.7814 3.54572 29.6481 3.63997 29.5149 3.73747C29.2744 3.9146 29.0404 4.1031 28.8243 4.30947C28.717 4.41185 28.6179 4.52072 28.5155 4.63122C28.3043 4.85872 28.1028 5.09435 27.924 5.34785C27.8428 5.46322 27.7729 5.5851 27.6965 5.70697C27.5389 5.9621 27.3894 6.22372 27.2659 6.49835C27.1944 6.65597 27.1391 6.8201 27.079 6.9826C26.9864 7.23285 26.9019 7.48635 26.8401 7.74797C26.793 7.94297 26.7654 8.14122 26.7345 8.34272C26.6971 8.59135 26.6679 8.84323 26.6581 9.09998C26.6549 9.18935 26.6321 9.27222 26.6321 9.36322C26.6321 9.56797 26.6549 9.76948 26.6728 9.97098C26.6793 10.0506 26.6793 10.1335 26.689 10.2131C26.7361 10.6015 26.8206 10.9817 26.9311 11.3522C26.962 11.4578 27.0026 11.5618 27.04 11.6658C27.1473 11.9713 27.274 12.2671 27.4203 12.5531C27.4625 12.636 27.4999 12.7221 27.5454 12.8034C27.7436 13.1544 27.9776 13.4859 28.2344 13.7978C28.2978 13.8758 28.3676 13.9506 28.4343 14.0253C28.6796 14.3 28.9445 14.5567 29.2338 14.7923C29.2793 14.8297 29.3183 14.8703 29.3654 14.9061C29.6043 15.0897 29.8561 15.2571 30.121 15.4115C30.1389 15.4212 30.1551 15.4359 30.173 15.4456L30.1844 15.4245Z" fill="#333333"/>
<path d="M38.6815 10.4503C39.0244 10.4503 39.3022 9.9596 39.3022 9.3551C39.3022 8.7506 39.0227 8.26147 38.6799 8.26147C38.337 8.26147 38.0591 8.75222 38.0591 9.35672C38.0591 9.96122 38.3386 10.4503 38.6815 10.4503Z" fill="black"/>
</g>
<defs>
<filter id="filter0_d_7_332" x="-4" y="0" width="73" height="73" filterUnits="userSpaceOnUse" color-interpolation-filters="sRGB">
<feFlood flood-opacity="0" result="BackgroundImageFix"/>
<feColorMatrix in="SourceAlpha" type="matrix" values="0 0 0 0 0 0 0 0 0 0 0 0 0 0 0 0 0 0 127 0" result="hardAlpha"/>
<feOffset dy="4"/>
<feGaussianBlur stdDeviation="2"/>
<feComposite in2="hardAlpha" operator="out"/>
<feColorMatrix type="matrix" values="0 0 0 0 0 0 0 0 0 0 0 0 0 0 0 0 0 0 0.25 0"/>
<feBlend mode="normal" in2="BackgroundImageFix" result="effect1_dropShadow_7_332"/>
<feBlend mode="normal" in="SourceGraphic" in2="effect1_dropShadow_7_332" result="shape"/>
</filter>
</defs>
</svg>
