<svg width="64" height="64" viewBox="0 0 64 64" fill="none" xmlns="http://www.w3.org/2000/svg">
<circle cx="32" cy="32" r="32" fill="#FFE88E"/>
<g filter="url(#filter0_d_186_5676)">
<path d="M43.7862 20.6797H20.214C18.3363 20.6797 16.814 22.202 16.814 24.0797V39.7265C16.814 40.6657 17.5747 41.4265 18.514 41.4265H45.487C46.4263 41.4265 47.187 40.6657 47.187 39.7265V24.0797C47.187 22.202 45.6638 20.6797 43.7862 20.6797Z" fill="#FFB72D"/>
<path d="M47.1862 34.946H16.814V39.7264C16.814 40.6657 17.5747 41.4264 18.514 41.4264H45.487C46.4263 41.4264 47.187 40.6657 47.187 39.7264L47.1862 34.946Z" fill="#FF8F00"/>
<path d="M22.1162 44.8163C24.123 44.8163 25.7499 43.1894 25.7499 41.1826C25.7499 39.1757 24.123 37.5488 22.1162 37.5488C20.1093 37.5488 18.4824 39.1757 18.4824 41.1826C18.4824 43.1894 20.1093 44.8163 22.1162 44.8163Z" fill="#313D4C"/>
<path d="M22.1161 42.6361C22.9188 42.6361 23.5696 41.9854 23.5696 41.1826C23.5696 40.3799 22.9188 39.7291 22.1161 39.7291C21.3134 39.7291 20.6626 40.3799 20.6626 41.1826C20.6626 41.9854 21.3134 42.6361 22.1161 42.6361Z" fill="#6B7683"/>
<path d="M41.5532 44.8163C43.56 44.8163 45.1869 43.1894 45.1869 41.1826C45.1869 39.1757 43.56 37.5488 41.5532 37.5488C39.5463 37.5488 37.9194 39.1757 37.9194 41.1826C37.9194 43.1894 39.5463 44.8163 41.5532 44.8163Z" fill="#313D4C"/>
<path d="M41.5531 42.6361C42.3559 42.6361 43.0066 41.9854 43.0066 41.1826C43.0066 40.3799 42.3559 39.7291 41.5531 39.7291C40.7504 39.7291 40.0996 40.3799 40.0996 41.1826C40.0996 41.9854 40.7504 42.6361 41.5531 42.6361Z" fill="#6B7683"/>
<path d="M47.1861 38.5484C46.6285 38.5484 46.1763 38.0962 46.1763 37.5386C46.1763 36.981 46.6285 36.5288 47.1861 36.5288V38.5476V38.5484Z" fill="white"/>
<path d="M20.247 23.9522H30.1843V31.0157H20.247C19.7123 31.0157 19.2788 30.5822 19.2788 30.0476V24.9212C19.2788 24.3866 19.7123 23.9531 20.247 23.9531V23.9522Z" fill="#313D4C"/>
<path d="M31.3848 23.9522H41.3221C41.8568 23.9522 42.2903 24.3857 42.2903 24.9204V30.0467C42.2903 30.5814 41.8568 31.0149 41.3221 31.0149H31.3848V23.9522Z" fill="#313D4C"/>
<path d="M45.017 23.9522H47.1862V33.5657H45.017C44.4823 33.5657 44.0488 33.1322 44.0488 32.5976V24.9212C44.0488 24.3866 44.4823 23.9531 45.017 23.9531V23.9522Z" fill="#313D4C"/>
</g>
<defs>
<filter id="filter0_d_186_5676" x="11" y="15" width="42" height="42" filterUnits="userSpaceOnUse" color-interpolation-filters="sRGB">
<feFlood flood-opacity="0" result="BackgroundImageFix"/>
<feColorMatrix in="SourceAlpha" type="matrix" values="0 0 0 0 0 0 0 0 0 0 0 0 0 0 0 0 0 0 127 0" result="hardAlpha"/>
<feOffset dy="4"/>
<feGaussianBlur stdDeviation="2"/>
<feComposite in2="hardAlpha" operator="out"/>
<feColorMatrix type="matrix" values="0 0 0 0 0 0 0 0 0 0 0 0 0 0 0 0 0 0 0.25 0"/>
<feBlend mode="normal" in2="BackgroundImageFix" result="effect1_dropShadow_186_5676"/>
<feBlend mode="normal" in="SourceGraphic" in2="effect1_dropShadow_186_5676" result="shape"/>
</filter>
</defs>
</svg>
